<?xml version="1.0" encoding="UTF-8"?>
<svg id="Layer_2" data-name="Layer 2" xmlns="http://www.w3.org/2000/svg" viewBox="0 0 695.68 511.02">
  <defs>
    <style>
      .cls-1 {
        fill: #fff;
      }
    </style>
  </defs>
  <g id="Layer_1-2" data-name="Layer 1">
    <g>
      <path class="cls-1" d="M236.18,180.15c.46-.13,1.2-.12,1.95-.96,30.76.83,60.23-13.84,81.16-36.43,6.11-6.6,13.94-8.51,22.85-6.26-4.63-5.57-6.37-10.92-6.49-17.67-.33-17.23,2.54-34.45,8.12-50.68,1.7-4.96,6.01-6.49,10.58-4.98,9.26,3.05,19.39,3.7,27.86,9.27,6.85,4.5-3.01,37.92-7.08,47.11-4.48,10.12-12.15,16.59-23.01,20.33,8.37,3.51,12.83,8.44,12.58,16.52s-4.38,14.43-10.46,19.92c5.09,4.78,10.58,10.98,6.16,16.84-3.26,4.32-27.58-.92-33.45-5.04-13.3,19.56-43.28,33.61-64.81,42l1.47,39.75,20.61-1.05c7.74-11.16,21.74-13.15,32.05-4.77,1.33,1.08,3.25,3.1,5.01,2.86l12.74-1.72h26.6c.25-7.16-.09-13.88.72-20.82,1.29-10.94,11.17-10.14,11.46-23.42l.54-24.46c.16-7.2,5.47-11.75,12.7-11.32,5.59.33,9.74,3.9,10.24,9.69l2.19,25.58c1.33,15.56,12.78,14.25,14.08,30.12l1.07,12.98c8.15.47,15.54.35,23.3-.1,3.78-.22,1.66-9.98,9.97-7.93,9.69,2.4,9.97-8.35,23.05-8.64,5.04-.11,9.28,3.16,11.68,7.45,4.09,7.29,9.08-6.15,24.51,9.87,2.6,2.7,8.97.15,12.19.88l.8-21.31c-23.01-3.35-53.49-22.36-67.01-42.41-9.12,4.16-30.3,7.53-31.35-4.54-.43-4.85,1.84-7.46,7.06-11.03-9.29-1.42-15.49-6.41-16.7-14.24-2.89-18.68,19.53-19.52,14.37-21.38-4.47-1.61-9.25-1.41-13.12-4.4-4.98-3.86-9.33-8.7-12.17-14.46-5.54-11.23-9.31-22.52-13.81-34.28-1.01-2.65-2.77-8.04.28-10,8.9-5.72,19.18-8.85,29.29-11.59,4.73-1.29,8.18.68,10.26,4.94,7.79,15.92,12.35,33.14,13.04,50.9.25,6.56-2.95,10.7-6.56,17.92,12.96-.28,22.14,4.89,31.31,12.13,12.18,9.61,41.58,27.52,58.31,25.84-9.89-4.67-19.54-9.15-24.1-19.28-5.62-12.48-.59-26.37,9.83-35.33-8.01-3.44-23.51-8.52-20.98-18.45,2.2-8.64,33.65-6.52,41.95-6.37,10.22-18.34,31.51-33.74,52.92-27.26,18.65,5.64,21.4,31.28,17.4,47.91,10.8,6.82,14.84,4.27,26.34,15,4.87,4.54,5.91,12.2,1.32,17.15-3.53,3.81-8.64,4.62-13.92,4.82,3.53,8.9,7.41,13.98,5.01,24.16,9.7,8.37,15.98,18.45,22.24,30.55,11.42.08,22.36,2.26,32.28,7.06,34.5,16.7,20.29,55.17,19.84,75.11-.36,15.76,1.86,32.05-7.7,46.08-1.78,2.61-5.78,3.36-8.93,5.2l-.15,101.42c0,6.68-3.42,12.17-9.02,14.31-5.3,2.02-12.92,1.39-16.35-3.53s-3.49-10.83-3.76-16.69l-3.89-83.2-29.92,10.16-.77,24.25c8.6-1.71,15.87-5.51,23.48-9.39,1.45-.74,4.24-1.39,5.22.31,5.56,9.71-23.52,17.44-29.41,20.52-.44,18.92-.51,36.73-1.89,54.92-.2,2.68-4.32,2.81-5.9,2.25-1.83-.65-3-3.13-2.89-5.9l3.09-83.79-32.91,9.14-.68,45.55c6.07-.09,12.21,1.03,16.18,5.73,6.14,7.27,4.47,18.11-2.59,24.16-3.9,3.33-8.42,4.94-13.84,5.41-1.69,15.55,4.84,42.87-17.93,41.85-8.03-.36-13.58-4.96-13.75-13.22l-.51-24.12c-11.83,4.28-40.23,6.16-46.15-8.9-10.98,3.95-46.25,2.09-48.49-11.34-2.35-14.12,19.61-23.89,31.49-26.43,2.11-9.13,2.47-17.88,3.34-27,.25-2.58.85-4.96,2.89-5.56,1.53-.45,5.64-.59,5.87,1.96.9,9.86-1.25,19.41-2.74,29.47,10.4.27,19.06,3.03,27.51,7.8,2.04,1.15,6.43-2.44,6.51-4.69.35-9.74-.57-19.77.76-29.25.38-2.71,2.56-4.75,4.76-4.57s4.01,2.65,3.91,5.35l-1.07,27.24c3.45.03,6.28-.73,9.77-1.29l-.92-36.62-45.13.03-62.02-.91-130.19-.87,5.41,38.2c10.81,2.83,24.14,7.15,29.64,17.89,2.41,4.7,1.64,9.76-2.36,13.19-6.03,5.17-14.29,7.33-22.02,5.95-1.75,2.67-3.69,4.99-6.77,6.06-19.89,6.93-52.28,4.58-58.32-18.39l-14.74-56.09c-.78-2.98.61-4.99,3.21-5.49s4.47.86,5.28,3.79l11.28,40.66c9.85-2.75,19.63-4.05,29.63-2.47,4.71.75,8.36,3.47,12.49,5.43,8.17,3.89,14.26,10.54,18.51,18.05,4.69.76,11.71-.75,14.5-4.28,2-2.53-1.69-5.93-3.6-7.35-13.24-9.82-24.36-4.37-25.47-12.3l-6.03-43.09-47.17-.82-44.88-1.17c1.55,16.95,4.69,33.59,7.89,51.21,13.29,1.5,24.5,8.38,32.26,18.34,4.49,7.5,2.07,14.68-4.68,19.15-7.41,4.9-16.12,3.13-23.81,5.31-8.82,7.46-17.59,9.01-29.57,7.93-.89,5.17-.95,9.64-4.18,13.32-4.37,4.97-12.59,6.35-18.51,3.41-8.33-4.12-6.41-17.72-8.22-24.63-8.65,1.86-16.01-1.02-19.94-8.05-3.34-5.96-1.38-11.79-1.73-17.99s-5.4-38.82-7.33-40.73c-.53-.52-2.2.67-2.23,2.09-.32,17.05.46,33.61.88,50.74l.52,21.38c.06,2.42-3.39,2.75-4.77,2.59s-4.1-.87-4.25-3.31c-1.5-24.26-1.82-48.1-1.9-72.64-8.97.04-16.68-.33-26.11-1.26-.89,17.09-.06,33.85,1.28,50.95.24,3.02-1.68,5.27-3.99,5.35-2.64.09-4.74-1.03-5.09-4.2-.94-8.58-1.36-16.7-1.47-25.45l-26.37-2.2c-1.9,14.28-2.43,27.45-3.3,40.99-.22,3.44-1.75,5.92-4.82,5.87s-4.84-2.49-4.69-6.14c1.01-23.84,3.95-47.06,8.3-70.5-2.7-1.65-5.01-2.14-7.4-3.25-12.08-5.62-10.41-18.1-6.59-29.03-8.01-8.41-13.14-18.04-17.09-28.88-10.24-28.09-14.65-67.91.46-94.67,7.38-13.08,20.29-21.5,35.58-22.42,1.46-.09,5.35,2.42,6.27.48l13.58-28.65c-.04-4.85-5.54-8.75-8.58-11.83-4.11-4.17-7.04-10.55-3.86-15.37,2.22-3.36,2.07-5.18,1.08-8.85-2.66-9.89.7-19.71,6.14-28.55-5.97-2.96-8.49-7.95-7.63-14.17,1.73-12.52,19.43-26.66,33.83-18.59,4.86,2.72,8.02,7.12,10.86,12,16.19-1.37,31,4.7,42.58,15.2,7.44,6.75,15.06,14.6,11.91,25.68,9.59,15.92,15.4,29.19,7.52,47.66-1.28,3-3.66,4.8-5.77,7.55,15.98,12.93,28.44,29.16,35.67,48.95,6.07-2.78,10.78-5.08,17.35-6.55,3.75-21.98-5.16-14.46-4.41-24.96.33-4.57-1.16-19.84,5.7-18.77,7.18,1.11.65,11.92,2.96,16.99,2.41-2.91,1.72-15.37,6.17-15.73,5.67-.46,3.93,11.46,4.61,15.75,4.73-6.16-1.42-12.15,3-15.5,6.41-4.85,10.15,12.95,3.71,23.09-2.78,4.37-6.69,6.35-11.9,6.45.37,4.16-.96,8.7.43,12.39,2,1,5.68.66,7.18,2.25,6.09,6.42-1.32,15.42-.26,23.65,1.97.88,4.07-.1,6-.9,8.01-3.33,15.73-6.19,24.51-7.69.19-7.59-.74-14.49-.79-21.96l-.13-19.01c-.03-3.94,2.3-6.91,5.65-8.42l23.35-10.56c10.11-4.57,32.31-18.4,36.92-28.49-5.97-3.97-9.64-9.42-13.89-15.07-20.21,13.51-43.74,21.69-67.92,20.46-3.06-.16-2.24-5.97-1.04-7.93ZM373.66,91.88c1.26-5.04,1.9-8.85,1.22-13.06l-23.36-6.25c-1.95,7.87-3.9,14.81-4.82,23.18l26.96-3.87ZM399.7,107.39c8.73-1.97,16.59-2.41,25.58-3.26-1.81-6.87-3.95-13.02-7.36-19.4l-19.33,6.39c-6.69,2.21-1.18,8.82,1.11,16.26ZM584.22,139.44l18.68.56c-3.06-2.12-6.65-2.26-10.22-3.65-6.56-2.54,1.4-13.34-1.61-31.08-1.92-11.26-10.85-18.11-22.13-16.66-9.82,1.26-18.29,5.63-24.53,13.39l-12.26,15.26c-11.88.12-22.56-.8-34.61.61,13.07,6.34,26.37,9.86,40.31,13.58,15.21,4.06,30,7.53,46.38,7.97ZM350.44,130.22c11.61-1.68,19.85-19.71,21.07-29.18l-26.24,4.48c-.49,3.8-2.35,25.78,5.17,24.69ZM88.18,117.2c-3.04-2.77-6.26-5.67-10.39-6.25-8.52-1.19-16.43,6.54-16.29,14.81.03,1.71,1.53,3.1,2.47,3.41,1.06.35,17.02-11.04,24.21-11.97ZM425.76,140.34c6.7-2.3,3.55-21.13,1.92-27.29-8.2.32-15.43,1.94-24.19,3.21,2.27,8.08,12.96,27.27,22.27,24.08ZM89.94,150.41l19.06-7.36c6.68-3.69,13.32-6.19,20.6-9.47-17.15-11.1-39.07-11.84-54.94.05-8.98,6.73-13.8,17.63-11.87,28.56,9.14-5.25,17.82-8.18,27.15-11.78ZM599.44,161.78c-.95-1.24-.7-3.43-.1-4.42,1.44-2.38,12.44,2.56,21.34-2.98-1.8-4.96-6.64-5.75-11.13-5.56-19.06.82-37.6-.3-56.33-3.87-11.79-2.25-22.48-6.96-34.79-8.31-6.98,2.36-13.27,12.79-13.26,20.42s5.32,13.8,11.88,17.23c20.09,10.49,43.6,6.34,61.11-7.84,2.61-2.11,7.77-3.69,9.16-.04s-2.66,6.11-4.71,8.72c4.95,6.17,18.84,16.52,25.67,12.13,6-3.85-5.27-20.83-8.84-25.5ZM136.65,140.78c-1.74-1.17-6.67.78-5.71,2.89,1.87,4.11,4.44,7.53,6.93,11.06.9,1.28,3.56-.44,4.46-1.21,3.28-2.77-2.18-10.39-5.68-12.74ZM334.19,159.68c-3.44,1.25-4.81,4.33-7.74,2.91-2.6-1.26-2.53-5.04-1.79-7.28,1.77-5.39,7.97,1.03,10.4-9.89-7.54-2.47-15.04,12.21-22.5,17.52l14.09,14.63c8.1-10.96,1.43-6.12,7.55-17.88ZM130.15,157.65c-3.33-3.28-4.44-7.06-6.56-10.9-3,1.48-5.13,2.43-8.22,2.76l5.87,12.64c3.52-.81,6.37-1.49,8.92-4.49ZM345.17,172.67c5.23-3.45,14.56-15.89,8.7-21.75-1.54-1.54-5.93-2.88-8.46-1.92l-5.24,21.1c.58,1.04,3.79,3.37,4.99,2.58ZM113.84,164.8l-5.35-12.14c-1.79.9-4.9,1.93-4.91,3.62-.03,4.22,1.97,7.64,2.89,12.01,2.59-.74,5.06-.91,7.38-3.5ZM93.48,174.27c2.68-.66,3.36-1.93,4.56-3.31-.73-4.36-1.57-8.4-3.31-12.47-1.98.77-5.14,1.94-4.95,3.63.48,4.25,2.4,7.83,3.69,12.15ZM460.19,184.1l9.55-6.69-17.31-12.72c-3.27-2.4-6.69-4.5-10.25-5.15.47,2.42.52,4.09,1.08,4.95,1.16,1.78,8.37.34,7.43,5.08-.84,4.22-5.29,3.54-4.96,6.1.6,4.66,6.18,1.04,14.47,8.43ZM434.43,167.17c-1.83-1.68-1.08-4.9-2.33-6.21-2.67-2.79-13.19,1.87-12.28,8.82.85,6.5,8.58,6.25,14.72,11.24,3.55-3.71,4.34-9.76-.1-13.85ZM87.74,210.35c16.02,9.44,35.17,10.58,51,1.47,10.63-6.12,16.51-17.48,14.48-29.56-1.27-7.55-4.23-14.4-8.72-20.35l-36.08,15.45-21.43,10.56c-4.25,2.1-9.09,2.32-13.32,5.04,1.59,8.02,7.14,13.3,14.07,17.39ZM83.7,177.87c.09-5.26-.74-9.06-1.79-13.58-2.42.26-6.82.78-7.63,2.99.66,4.42,2.35,9.39,3.8,13.31,1.36.76,5.6-.96,5.62-2.72ZM68.91,183.57c.74-3.61-1.08-8.57-2.8-11.12-3.13-.41-4.38,4.21-4.43,6.8-.05,2.46.7,3.97,2.24,4.96,1.11.71,4.47,1.95,5-.64ZM484.42,219.29c10.73,7.11,22.06,11.75,34.99,14.88l3.83-37.02c-20.05-1.88-36.61-9.19-53.39-19.75,1.77,3.55,3.97,6.07,1.41,9.46-2.73,4.04-7.27,6.42-11.65,9.62,6.85,9.2,15.43,15.78,24.8,22.8ZM351.5,185.34c-6.31-4.88-13.74-6.78-21.55-4.6,6.73,2.61,13.3,5.39,21.55,4.6ZM607.3,266.58c.93,5.45-2.95,8.28-7.03,9.03-10.19,1.88-19.92,2.46-30.35,3.61.74,4.5,4.07,6.91,7.47,9.37,7.57,5.48,13.37,12.51,18.29,20.83,13.93-2.1,27.11-4.77,40.02-9.17,7.51-2.56,12.65-7.9,13.26-16.23,1.7-23.14-13.41-56.1-26.54-75.61-12.56-18.66-13.4-6.55-24.68-11.21-8.77-3.62-16.28-9.01-22.15-17.17-7.6,4.32-15.14,6.65-24.09,8.46,2.11,9.49,3.79,18.9,4.24,28.67.13,2.73-2.73,3.96-4.41,3.9s-4.24-.37-4.59-2.8l-4.06-28.45c-3.25-.49-6.12-.84-9.46-.12l-3.88,40.1-2.54,36.77c27.65,2.66,43.14,4.96,70.99-.36l-10.02-38.9c-.79-3.08.97-5.78,3.58-6.1,1.74-.22,4.58.6,5.27,3.3,3.58,13.9,8.2,27.56,10.68,42.06ZM452.78,190.66c-3.37-3.49-6.15-3.65-8.66-4.3-4.78,3.08-10.02,4.89-13.81,9.84,8.4.6,15.39-2.29,22.47-5.54ZM382.68,201.7c4.26-.53,5.6-1.4,5.07-3.73-.39-1.7-1.28-3.35-3.8-2.66-1.9,1.62-2.99,4.66-1.27,6.39ZM99.37,298.87c1.04,4.94,3.62,7.64,8.98,7.76,13.98.32,27.77-.97,41.81-3.46l-2.01-26.09c-.59-7.69-1.55-15.13-.7-22.79.31-2.77,3.03-3.51,5.18-3.14,6.13,1.08,2.18,14.48,5.25,22.42l22.26-9.25c-6.46-18.66-18.35-33.51-33.23-46.39-24.31,15.05-54.65,11.44-75.61-8.6-7.09,12.68-11.44,24.94-15.98,38.01-7.84,26.02-9.97,64.44,1.06,89.58,7.59,17.3,27.77,16.45,43.85,13.13l31.06-6.41-.36-28.19c-13.32.35-36.59,5.75-40.02-11.95-3.03-15.66-3.43-31.54-.61-47.16.48-2.65,3.64-4.04,5.46-3.79,7.27,1-1.49,22,3.61,46.31ZM385.64,295.24c-.65-9.04-.45-17.93.3-27.03.71-8.55,12.2-3.33,18.21-4.82-.36-6.81.53-14.95-4.17-20.02-11.74-12.67-8.99-16.03-11.91-32.5-13.11-2.26,1.68,15.53-14.22,29.2-2.5,2.15-3.86,5.66-3.87,9.11-.08,20.13.21,39.59,1.27,59.58.17,3.2,2.84,5.82,6.16,5.95,8.79.35,18.13.52,26.37-2.64,2.19-3.07,1.8-9.12.76-12.11-6.51-.18-18.25,4.35-18.9-4.71ZM221.31,229.28c-.23-1.25-1.1-1.25-1.33,0,.14,2.31,1.19,2.31,1.33,0ZM682.11,300.38c4.01-19.47,10.97-47.73-8.35-61.27-8.58-6.01-18.43-8.64-29.05-9.63,7.44,13.5,18.29,48.83,11.98,63.32l25.41,7.58ZM56.46,371.66c-3.95-8.71-6.6-15.91-4.64-24.78-17.7-26.52-14.1-77.92-3.95-108.15-13.22-.64-25.11,7.31-31.01,19.15-12.75,25.58-7.89,64,2.89,89.77,7.74,18.51,14.48,26.66,36.72,24.02ZM473.6,264.25c2.27-1.86-.89-7.78-3.92-7.94-4.03-.21-8.76,3.34-7.51,7.59,3.44-.08,8.29,2.15,11.42.35ZM206.5,272.11c-1.08-2.35.09-5.71,2.47-5.56,2.8.17,5.25,1.69,7.92,1.07.96-.23.83-2.17.41-2.73-4.29-5.72-21.7,3.45-27.86,5.86,3.05,7.1,4.25,14.41,4.95,22.07,6.4-1.19,12.4-2.93,17.99-6.29.99-2.74,1.44-5.4,2.01-8.55-2.96-1.45-6.21-2.24-7.87-5.86ZM498.79,281.64c-1.82,7.59-14.58.74-19.39-1.43-.55,3.31-1.34,6.25-3.8,7.26-2.02.83-5.78,1.55-7.05-.59-2.54-4.26,6.24-9.49,2.35-11.82-1.9-1.14-6.21-2.16-8.44-1.17-2.36,1.04-11.66,9.65-14.2,6.32-2.33-3.06,4.52-9.65,5.93-14.46-4.27.9-7.27,3.55-10.68,6.08l-10.26,7.63c-1.94,1.44-2.58,3.79-2.23,5.95,1.29,8.01,53.78,19.47,85.65,4.63,11.22-5.22-11.18-11.77-15.87-16.86-4.42-4.79-9.45-10.13-16.68-7.5-1.76.64-1.92,5.48.25,6.01,4.82,1.17,15.79,4.2,14.42,9.94ZM310.86,272.36c-5.07-4.7-14.31-6.67-18.72.8,3.2,3.77,18.31,4.49,18.72-.8ZM405.07,290.77l-.45-17.64c-3.31-.68-6.38-.41-9.83-.17-.66,6.1-.77,11.66-.33,17.8,3.55.84,6.82.66,10.61,0ZM335.63,350.2l126.29.08c38.28.02,75.64.17,113.51-4.83,21.12-2.79,40.04-12.02,60.48-17.01l47.5-17.25c-10-3.2-20.34-7.47-30.83-8.92-18.89,11.97-32.23,10.77-50.34,16.27-4.12,1.25-8.07.05-11.47-.58-15.72,5.72-16.98,13.05-32.29,6.76-3.98-1.63-8.24-1.95-8.59-7.98-.43-7.21-8.04-2.25-11.79-8.48-1.5-2.49-1.98-6.05-.91-8.83,5.58-14.6,22.76-16.1,19.57-19.78-.71-.82-26.87-2.33-33.68-4.28,4.19,3.57,6.04,7.68,5.65,12.38s-3.57,8.68-8.35,10.94c-17.75,8.4-37.75,9.78-57.44,7.47-11.78-1.38-22.7-3.64-32.97-9.01-5.03-2.63-7.86-6.33-8.13-11.57s1.27-8.95,6.59-12.69c-5.26-.92-9.49.07-14.58.06l1.19,34.15c.26,7.5-3.51,13.43-10.91,15.09-12.58,2.82-41.38,7.4-42.25-12.05-.53-11.79-1.1-23.01-.95-35.02-11.01-.59-21.11-1.14-32.21.24,8.16,3.11,15.86,6.95,20.75,14.34,3.15,4.76.89,11.08-3.14,14.79-3.4,3.12-7.62,5.28-12.2,6.84-27.2,9.28-60.93,12.92-87.9,1.71-8.12-3.38-12.08-12.69-7.2-20.03,4.04-6.08,10.61-8.4,16.33-12.71-10.53,2.02-19.59,6.26-29.43,9.53-12.88,4.29-14.52,12.18-34.77,12.43-4.63.06-8.86,4.08-13,5.79,4.31,4.31,7.93,10.7,4.93,16.01-4.93,8.72-13.24,14.1-21.03,19.95l81.03,4.12,51.97,1.36,40.58.73ZM185.5,294.06c-.8-7.53-1.74-12.78-3.43-19.4l-23.71,9.15,1.53,18.4c9.21-1.61,17.85-3.23,25.61-8.15ZM323.72,292.16c-5.89,7.48-16.37-11.98-22.18-5.15,3.27,3.18,7.34,9.03,3.67,12.82-1.58,1.63-3.76,1.6-5.64.78-5.97-2.59-7.78-8.46-7.76-14.4-1.74-2.65-5.85-6.63-9-7.45-7.97-2.08-14.62,3.25-20.57,7.41l-13.59,9.5c-1.63,1.14-2.88,2.99-2.47,4.86.29,1.29,1.58,3.22,3.62,3.93,19.57,6.82,40.41,7.25,60.83,3.15,6.2-1.24,30-5.6,30.49-12.06.4-5.26-13.8-11.28-19.23-15.14-1.33-.95-2.34-3.03-3.8-1.79-6.71,5.73,9.77,8.29,5.63,13.55ZM567.42,308.18c1.81,2.83-2.93,7.4-1.07,9.44,7.09-1.22,12.49-3.34,18.95-7.05-5.87-7.58-11.99-15.34-20.76-20.02-3.97-2.12-16.78,5.99-17.38,8.86,3.6.37,6.36-1.97,8.98-.51,4.97,2.76-5.4,12.05.61,12.65,2.54.25,7.96-7.62,10.68-3.36ZM166.41,329.34c-3.11-3-7.97-4.96-5.13-8.7,3-3.96,12.12,2.1,13.5-.24,2.44-4.12-7.83-9.22-11.54-9.17-7.88.1-14.96,2.19-22.99,2.73l.25,28.52c5.58-1.06,9.67-1.29,14.05-2.94-1.21-1.97-2.09-3.4-2.15-4.85-.33-7.88,8.81,2.19,14.01-5.35ZM671.43,345.61c9.57-3.32,10.27-14.46,11.53-23.63l-16.1,5.44c-30.14,10.18-59.56,20.46-90.83,28.33-1.84,7.32-3.9,14.38-4.26,22.68,10.96-2.54,20.81-5.45,31.27-9.08l68.39-23.73ZM562.27,379.53c.87-8.28,2.47-15.06,4.28-22.64-46.01,3.04-91.29,4.44-137.53,4.25l-80.02-.32-86.82-2.1-29.07-.87-20-.96-72.84-4.83c-3.08-.2-7.86.3-9.78,2.28-.78,6.06-.16,13.51,2.92,18.66,1.51,2.19,6.28,2.37,8.87,2.43l72.86,1.55,70.05.69,90.58.9,84.17.76c34.32.31,67.41,1.28,102.33.22ZM144.53,447.5l-1.99-28.51c-.8-11.44-.44-22.72-2.07-33.96-6.84-.68-13.73-2.45-16.48-8.62s-2.84-13.28-3.96-20.73c-17.39,2.99-44.2,11.12-59.51-.3,1.56,8.53,5.22,16.11,12.08,21.27,22.21,16.71,49.5.37,54.06,26.13l8.04,45.4c3.83-.07,6.21.31,9.84-.68ZM656.4,456.76c.45,3.51,3.17,5.45,5.53,4.83,1.61-.42,4.34-2.42,4.35-5.09l.38-99.09-15.14,5.25,2.53,56.27c.57,12.73.7,24.96,2.34,37.83ZM116.6,405.15c.76-4.92-2.78-8.61-7.42-8.98l-21.17-2.76c-9.97-1.3-18.68-5.87-24.91-13-9.73,3.11-18.96,1.85-28.32-.98-1.94,3.48-3.17,7.97-1.82,11.99,2.24,6.65,20.77,9.06,27.39,9.68,18.76,1.75,36.82,4.13,56.24,4.05ZM168.53,489.39l-1.32-54.37-1.05-49.54-16.21-.58c.97,33.22,4.09,65.21,7.2,97.94.45,4.71.29,9.55,2.84,13.19,1.36,1.94,5.2.8,6.46-.27s2.14-3.47,2.07-6.36ZM194.43,437.44l-7.81-51.53c-4.51.42-8.1-.64-11.63.67l1.7,57.62c4.92-4.37,10.81-5.73,17.75-6.76ZM559.51,494.09c1.12-17.41,1-33.93,1.27-51.08l.84-53.93-16.98.59,1.04,31.37.99,44.95c.26,11.59-.35,23.08,2.09,34.24.61,2.81,5.85,1.88,7.42.73,1.65-1.22,3.12-3.63,3.33-6.87ZM71.39,430.26l.38-17.72-22.42-3.47-3.37,19.21,25.41,1.98ZM493.08,453.21l10.75-12.55c-17.89-9.97-36.01-5.4-50.22,6.89-10.11,8.75,32.73,13.52,39.47,5.66ZM537.35,464.4l-.7-28.39c-11.65-1.85-33.87,14.54-36.26,24.5-1.73,7.22,29.65,8.18,36.96,3.89ZM298.62,455.49c-11.32-14.48-29.89-19.37-47.51-12.65-.19,8.29,4.89,15.3,13.48,17.95,12.65,3.91,40.83,3.41,34.03-5.3ZM581.09,451.31c.49-6.11-6.44-9.81-11.15-7.95l-.03,16.68c5.15-.57,10.72-3.02,11.18-8.73ZM228.58,465.65c.89-3.1.68-4.91-.69-6.42-9.91-10.87-25.32-16.97-40.53-10.73l21.03,19.9c4.88,4.61,15.04-.92,20.2-2.75ZM197.76,471.54c-5.19-7.53-11.51-13.72-20.56-16.99-.31,8.66-.06,15.83.62,23.75,3.2,1.63,25.24.92,19.94-6.76ZM146.73,471.5c-.41-5.59-.35-9.68-1.45-14.43-3.85-.27-7.01-.38-10.63-.05-.84,4.26-.91,9.12,2.27,12.16,2.47,2.36,6.47,2.67,9.81,2.31Z"/>
      <path class="cls-1" d="M238.13,179.19c-1.29-.03-1.49.79-1.95.96-10.96,4.2-20.8,6.9-32.24,6.46-23.21-.9-41.6-9.42-45.26-34.14-.4-2.71,2.12-4.78,4.04-4.82,8.16-.18,2.76,10.8,11.19,18.91,15.48,14.91,44.36,12.6,60.7,3.54,14.8-8.2,12.76-22.93,6.55-35.37-12.07.69-81.34,9.45-86.51,4.14-5.67-5.83-5.14-14.26-4.61-21.77,1.32-18.62,14.69-32.55,33.45-34.41,18.25-1.81,40.18,7.64,49.2,24.23l21.03,1.98c5.73.54,11.93,1.48,16.34,5.46,3.94,3.56,1.72,9.87-2.6,12.11-5.72,2.97-11.37,4.65-17.51,6.55,8.4,17.37,7.38,33.37-9.29,43.77-1.22.76-2.17,1.33-2.55,2.39ZM261.19,120.2c-10.49-5.06-31.69-.22-33.98-5.94-10.89-15.4-26.79-24.93-46.3-21.37-17.14,3.13-23.35,17.88-21.53,34.27.41,3.68,3.31,4.89,6.86,4.6l61.26-5.04c11.6-.95,22.6-2.13,33.7-6.52Z"/>
      <path class="cls-1" d="M383.76,33.37c-.12,2.86-1.68,5.13-4.26,4.96-1.7-.12-4.91-1.35-5.11-4.14-.74-10.2-.01-20.35.89-30.66.21-2.46,2.72-3.31,4.48-3.5,1.5-.16,4.63.22,4.78,2.68.63,10.27-.35,20.34-.77,30.66Z"/>
      <path class="cls-1" d="M416.44,42.36c-1.94,3.07-3.66,4.78-6.8,3.81-9.79-3.02,6.38-22.26,10.81-28.39,1.73-2.4,3.97-4.01,6.53-2.75,2.77,1.36,3.82,4.61,2.03,7.44l-12.56,19.88Z"/>
      <path class="cls-1" d="M346.77,35c1.62,2.34.77,5.2-.51,6.22-1.37,1.09-5.14,2.1-6.55.33-4.88-6.12-8.93-12.61-13.55-19.05-1.58-2.2-1.38-5.13.36-6.9,1.2-1.23,4.6-3.22,6.22-.88l14.04,20.28Z"/>
      <path class="cls-1" d="M324.93,57.79c-1.34,6.76-14.09.89-18.11-1.19-2.01-1.04-2.68-2.92-2.67-4.73.01-1.43.65-4.24,3.05-4.32,5.38-.19,10.55,2.24,15.26,4.47,2.45,1.16,2.93,3.46,2.47,5.78Z"/>
      <path class="cls-1" d="M451.66,51.8c-.31,7.34-18.76,11.08-20.01,6.61-2.01-7.2,11.56-11.07,17.07-10.93,2.4.06,3,2.92,2.94,4.32Z"/>
      <path class="cls-1" d="M205.24,154.17c-3.34,1.34-9.21,2.16-11.51-.85-.81-1.05-1.88-3.23-.42-5.01,2.57-3.14,7.31-4.15,11.12-3.15,2.2.58,3.62,2.12,3.84,3.75.3,2.24-.7,4.32-3.03,5.26Z"/>
      <path class="cls-1" d="M232.35,153.94c-2.79.5-5.3.81-6.94-1.23-1-1.24-1.86-4.04-.61-6.09.83-1.37,3.23-2.29,5.51-2.75,3.22-.65,6.37.47,7.32,3.21,1.19,3.43-1.05,6.1-5.27,6.86Z"/>
      <path class="cls-1" d="M260.09,330.51c-.66,6.24-9.34,5.32-16.01,4.42-13.81-1.86-27.15-3.59-41.03-4.4-2.89-.17-5.11-1.69-5.72-4.09-.48-1.9,1.36-5.66,4.67-5.68,18.14-.12,36.23,2.42,54.41,4.79,2.43.32,3.83,3.45,3.67,4.97Z"/>
      <path class="cls-1" d="M561.19,162.13c-3.55.7-11.31-1.62-11.23-6.3.03-1.56.83-3.88,2.95-4.29,4.47-.87,8.82.57,12.21,3.33,1.45,3.05-.09,6.5-3.93,7.26Z"/>
      <path class="cls-1" d="M535.01,149.21c1.63,2.44.07,4.74-1.1,5.61-2.99,2.23-10.27,1.22-12.09-2.87-.77-1.72-.71-4.64,1.85-5.96,3.38-1.73,9.03-.23,11.33,3.21Z"/>
      <path class="cls-1" d="M121.68,185.32c2.49,4.77-2.36,8.16-6.44,8.63-3.29.38-5.83-.56-6.6-3.66-.59-2.4.62-4.9,3.6-6.19,2.7-1.17,7.58-2.34,9.44,1.22Z"/>
      <path class="cls-1" d="M139.45,186.82c-3.08.83-5.47-.59-6.64-2.62-1.55-2.68.26-4.83,2.98-6.35,2.09-1.16,4.11-1.48,5.88-.57,2.1,1.09,2.74,3,2.45,5.39-.22,1.83-1.84,3.39-4.67,4.16Z"/>
      <path class="cls-1" d="M284.08,290.93c-2.45,4.29-8.27,10.19-12.65,7.24-1.5-1.01-2.04-2.86-1.7-5.2.8-5.49,6.63-9.93,12.27-8.68,2.81.62,3.26,4.55,2.07,6.64Z"/>
    </g>
  </g>
</svg>