<?xml version="1.0" encoding="UTF-8"?>
<svg id="Layer_2" data-name="Layer 2" xmlns="http://www.w3.org/2000/svg" viewBox="0 0 263.62 263.58">
  <g id="Layer_1-2" data-name="Layer 1">
    <g>
      <path d="M245.44,263.56h-27.47s-.03-18.14-.03-18.14h-17.85s0,8.75,0,8.75l9.03.09v9.27s-9.28,0-9.28,0l-.09-9.04h-17.78s-.09,9.08-.09,9.08h-54.65s-.08-18.09-.08-18.09l-8.69-.1-.15,9.08-18,.04-.17,9.07-18.32-.02-.02-9.29,9.01-.08.08-9.02,18.06-.04.06-8.75-9.08-.08-.03-27.17-9.03-.08v-9.26s9.28-.03,9.28-.03l.11,9.01,9.01.09.07,18.08,9,.08.07,9.01,8.74.02.05-17.76-9.06-.12-.09-18.1-8.94-.07-.14-9.01-9.03-.07v-9.05s-8.74.02-8.74.02l-.08,8.94-9.03.24-.05,8.94-9.31-.02.02-18.39,9.04-.04v-17.83s-8.76.03-8.76.03l-.07,9.02-18.08.04-.04,8.73,9.05.07.06,9.33-9.35-.02-.08-9.05h-8.69s-.17,9.08-.17,9.08h-27.36s.02-9.36.02-9.36l27.17-.03v-26.89s-17.84-.04-17.84-.04l-.06,18.08-9.33.07v-36.56s18.35-.03,18.35-.03l.12,9.02,8.97.1.12,9.05h8.71s.07-9.04.07-9.04l8.98-.07.07-8.71-9.04-.11v-9.28s18.12-.08,18.12-.08l-.02-17.8h-8.75s-.05,9.04-.05,9.04l-9.33-.02v-9.29s9.04-.06,9.04-.06l-.02-8.75h-17.78s-.08,9.04-.08,9.04l-18.11.06v8.68s9.04.14,9.04.14v9.27s-27.47.03-27.47.03l-.07-9.05-9.02-.08v-9.27s18.13-.08,18.13-.08l.1-9.05h27.13s.11-9.05.11-9.05h36.45s.08,9.27.08,9.27l-9.09.17.02,8.65,9.04.14.04,8.93,9.02.08v9.33s-18.09,0-18.09,0l-.04,17.87h17.84s.08-9.02.08-9.02l8.98-.07.06-9,9.01-.07.08-8.75-9.09-.07v-9.29s9.05-.06,9.05-.06l.06-9.03,9.03-.05v-17.8s-8.76,0-8.76,0l-.03,8.98-9.29.06-.16-9.08-27.14-.03v-36.57s27.2-.01,27.2-.01v-8.76s-18.06-.07-18.06-.07l-.12-8.99-9.02-.13V.02s18.35,0,18.35,0l.11,9.02,8.74.05V.08s9.3-.08,9.3-.08l.14,9.07h8.69s.08-9.03.08-9.03l9.28-.02.07,9.04h8.75s.08-9.03.08-9.03h9.25s.03,9.33.03,9.33l-9.04.05-.06,9.02-9,.06-.07,8.99-8.99.09-.13,18.13-18.06.02v17.81s8.76.02,8.76.02l.03-9,9.3-.06.08,9.05h8.74s.07-9.01.07-9.01h9.3s0,18.39,0,18.39l-18.06.02-.12,8.73,9.09.13.03,8.99,17.87.03.02-36.26,9.08-.1v-17.81s-8.79.02-8.79.02l-.05,9.01-18.32.04-.1-9.33,18.08-.06.16-9.03,18.07-.05.04-27.21,9.33.05.04,18.12,8.73-.07.07-9.03,9.32.05v36.55s-27.18.02-27.18.02l-.05,8.74,9.08.08-.07,18.39h-18.06s-.05,18.07-.05,18.07l-9.03.15-.08,8.96-9.04.15.02,8.68,9.03.07.04,18.11,26.91.03.04-18.11,9.04-.09.02-17.8-18.09-.05-.06-9.32,18.31-.04.24,9.13,8.66-.09.06-18.08,27.4-.02.16,9.08h17.71s.1-9.06.1-9.06h27.46s.03,18.36.03,18.36l-9.22.08-.21-9.09-8.73.06v17.76s9.05.05,9.05.05l.05,9.02,9.05.09v18.4s-18.34,0-18.34,0l-.1-9.02-8.76-.09-.03,9.06-18.08.07-.05,8.73,18.1.08.09,9.04h8.67s.18-9.09.18-9.09l18.34.08-.05,9.23-9,.1-.04,8.73,9.07.06-.05,9.34-18.34-.03-.04-8.99-8.76-.09-.04,26.88,9.02.12.13,9.03,18.05.04v9.32s-18.32,0-18.32,0l-.1-9.03-8.72-.05-.09,9.03-8.99.08-.03,8.74,9.02.07.07,9.04h8.71s.16-9.07.16-9.07h18.33s0,18.42,0,18.42h-9.28s-.09-9.03-.09-9.03h-8.77s0,17.77,0,17.77l9.06.12v18.33s-9.02.09-9.02.09l-.06,9.04ZM90.85,9.37h-8.81v8.82h8.81v-8.82ZM90.88,63.51l-.06-8.72-8.71-.02-.02,8.8,8.8-.06ZM163.48,54.78h-8.79v8.8h8.79v-8.8ZM99.91,63.87h-8.79v8.79h8.79v-8.79ZM217.95,82h-8.81v17.87h8.81v-17.87ZM127.18,100.17h-8.81v8.79h8.81v-8.79ZM245.2,100.17h-8.81v8.79h8.81v-8.79ZM208.87,109.25h-8.81v8.79h8.81v-8.79ZM227.02,109.25h-8.79v8.79h8.79v-8.79ZM217.95,118.32h-8.81v8.81h8.81v-8.81ZM136.24,163.39l.03-9.02h9.03s.03-26.97.03-26.97h-26.96s0,26.94,0,26.94l9.05.04.07,9.04,8.76-.03ZM190.76,145.52l-.12-9.02-8.98-.08-.09-9.03-8.73.07v26.92s36-.01,36-.01v-8.79s-18.08-.06-18.08-.06ZM199.8,127.4h-8.81v8.81h8.81v-8.81ZM109,136.47h-8.79v8.82h8.79v-8.82ZM217.95,136.47h-8.81v8.82h8.81v-8.82ZM99.91,145.55h-8.79v8.82h8.79v-8.82ZM227.02,145.55h-8.79v8.82h8.79v-8.82ZM63.61,154.64h-8.79v8.8h8.79v-8.8ZM118.12,181.64l9.06-.13-.04-8.67-9.02-.09-.09-9.05-17.82.1.04,17.75,8.95.06.19,9.08,8.64-.02.1-9.02ZM163.49,181.55l-.06-8.74-18.05-.03-.15-9.08-8.71.09v35.93s8.79-.05,8.79-.05l.05-18.08,18.14-.05ZM181.63,163.72h-17.87v8.8h17.87v-8.8ZM199.8,163.72h-8.81v17.87h8.81v-17.87ZM217.95,163.72h-8.81v8.79h8.81v-8.79ZM181.64,199.72l-.07-8.76-8.93-.02-.15-9.06h-8.67s-.15,9.06-.15,9.06l-8.97.03.06,8.8,26.88-.05ZM236.09,181.87h-8.79v8.81h8.79v-8.81ZM190.98,190.94v26.96h26.96v-26.96h-26.96ZM136.25,200.02h-8.81v8.81h8.81v-8.81ZM163.48,209.1h-8.79v8.81h8.79v-8.81ZM145.33,218.19h-8.81v8.79h8.81v-8.79ZM181.63,218.19h-8.8v8.8h8.8v-8.8ZM163.49,254.16v-8.93s9.06-.16,9.06-.16l-.03-8.7-9.01-.06-.08-9.04-17.81.02-.09,9.05-18.07.02.04,8.78h27.11s.16,9.1.16,9.1l8.72-.08ZM208.87,227.27h-8.81v8.79h8.81v-8.79ZM227.02,227.27h-8.79v8.8h8.79v-8.8ZM236.09,236.34h-8.79v8.81h8.79v-8.81ZM181.63,245.42h-8.8v8.81h8.8v-8.81ZM245.2,245.42h-8.81v8.81h8.81v-8.81Z"/>
      <polygon points="27.25 82.01 18.51 82.06 18.47 91.05 9.17 91.08 9.14 81.8 18.18 81.68 18.3 72.66 45.68 72.65 45.75 81.92 36.67 82.13 36.6 91.04 27.41 91.1 27.25 82.01"/>
      <polygon points="82.05 236.4 82.01 245.42 72.7 245.39 72.71 217.91 91.11 217.91 91.12 236.31 82.05 236.4"/>
      <rect y="154.37" width="9.43" height="36.57"/>
      <rect x="154.37" y="99.87" width="9.45" height="18.45"/>
      <rect x="181.63" y="54.49" width="9.35" height="9.38"/>
      <rect x="54.53" y="72.66" width="9.38" height="9.34"/>
      <rect x="254.27" y="172.51" width="9.34" height="9.36"/>
      <g>
        <path d="M63.61,199.76v63.55H.06v-63.55h63.55ZM54.53,208.83H9.14v45.4h45.39v-45.4Z"/>
        <rect x="18.24" y="217.9" width="27.22" height="27.26"/>
      </g>
      <g>
        <path d="M263.35.02v63.55h-63.55V.02h63.55ZM254.27,9.1h-45.39v45.4h45.39V9.1Z"/>
        <rect x="217.95" y="18.19" width="27.25" height="27.23"/>
      </g>
      <g>
        <path d="M63.61.02v63.55H.06V.02h63.55ZM54.53,9.1H9.14v45.4h45.39V9.1Z"/>
        <rect x="18.24" y="18.19" width="27.22" height="27.23"/>
      </g>
      <rect x="127.18" y="136.21" width="9.34" height="9.34"/>
      <rect x="199.8" y="199.76" width="9.34" height="9.34"/>
    </g>
  </g>
</svg>