<svg width="82" height="86" viewBox="0 0 82 86" fill="none" xmlns="http://www.w3.org/2000/svg">
<g clip-path="url(#clip0_936_3185)">
<path d="M-121.959 51.0048C-121.733 50.9409 -121.369 50.9458 -121 50.5325C-105.883 50.9409 -91.3997 43.7231 -81.1134 32.6086C-78.1106 29.3613 -74.2625 28.4216 -69.8836 29.5286C-72.159 26.7881 -73.0142 24.1559 -73.0732 20.8348C-73.2353 12.3574 -71.8249 3.88503 -69.0825 -4.10029C-68.247 -6.54066 -66.1288 -7.29344 -63.8829 -6.55051C-59.3319 -5.04987 -54.3535 -4.73007 -50.1908 -1.98957C-46.8243 0.224478 -51.6701 16.6675 -53.6703 21.189C-55.8721 26.1682 -59.6416 29.3515 -64.9788 31.1916C-60.8653 32.9186 -58.6734 35.3442 -58.7962 39.3196C-58.9191 43.295 -60.9488 46.4193 -63.9369 49.1205C-61.4354 51.4723 -58.7373 54.5227 -60.9095 57.4059C-62.5117 59.5314 -74.464 56.9533 -77.3488 54.9262C-83.8853 64.5499 -98.6192 71.4626 -109.2 75.5906L-108.478 95.148L-98.349 94.6314C-94.5451 89.1406 -87.6646 88.1615 -82.5977 92.2845C-81.944 92.8159 -81.0004 93.8097 -80.1354 93.6917L-73.8742 92.8454H-60.8014C-60.6785 89.3226 -60.8456 86.0163 -60.4476 82.6018C-59.8136 77.2192 -54.958 77.6128 -54.8154 71.0789L-54.55 59.0443C-54.4714 55.5018 -51.8618 53.2632 -48.3085 53.4747C-45.5612 53.6371 -43.5217 55.3936 -43.276 58.2423L-42.1997 70.8279C-41.546 78.4836 -35.9188 77.8391 -35.2799 85.6473L-34.754 92.0336C-30.7486 92.2648 -27.1168 92.2058 -23.303 91.9844C-21.4453 91.8761 -22.4872 87.0741 -18.4032 88.0827C-13.6409 89.2636 -13.5033 83.9745 -7.07501 83.8318C-4.59805 83.7777 -2.51427 85.3865 -1.33476 87.4973C0.675308 91.084 3.1277 84.4714 10.7109 92.3534C11.9887 93.6818 15.1193 92.4272 16.7018 92.7864C17.4809 72.0095 17.7142 71.2019 18.6677 54.4538C13.8071 52.1562 9.06451 49.952 6.82346 44.9679C4.06145 38.8276 6.5335 31.9936 11.6545 27.5852C7.71792 25.8927 0.10028 23.3932 1.34367 18.5076C2.42489 14.2566 17.8813 15.2997 21.9604 15.3735C26.9831 6.35 37.4463 -1.22695 47.9685 1.96127C57.1342 4.73621 58.4857 17.3514 56.5199 25.5335C61.8277 28.889 63.8131 27.6344 69.4649 32.9136C71.8583 35.1474 72.3695 38.9162 70.1137 41.3516C68.3788 43.2262 65.8675 43.6247 63.2726 43.7231C65.0074 48.102 66.9143 50.6014 65.7348 55.6101C70.5019 59.7282 82.4235 80.5467 85.5 86.5C91.1125 86.5394 102.125 114.848 107 117.21C123.955 125.426 102.501 101.259 102.28 111.069C102.103 118.824 103.194 126.838 98.4955 133.741C97.6207 135.025 95.6548 135.394 94.1067 136.3L94.033 186.199C94.033 189.486 92.3522 192.187 89.6001 193.24C86.9953 194.234 83.2504 193.924 81.5647 191.503C79.879 189.083 79.8495 186.175 79.7168 183.292L77.8051 142.356L63.1005 147.355L62.7221 159.286C66.9487 158.445 70.5216 156.575 74.2616 154.666C74.9742 154.302 76.3454 153.983 76.827 154.819C79.5595 159.596 65.2679 163.4 62.3732 164.915C62.1569 174.224 62.1225 182.987 61.4443 191.936C61.346 193.255 59.3212 193.319 58.5447 193.043C57.6454 192.723 57.0703 191.503 57.1244 190.14L58.643 148.915L42.4691 153.412L42.1349 175.823C45.118 175.779 48.1356 176.33 50.0867 178.642C53.1042 182.219 52.2835 187.552 48.8138 190.529C46.8971 192.168 44.6757 192.96 42.012 193.191C41.1814 200.842 44.3906 214.283 33.2001 213.782C29.2537 213.604 26.5261 211.341 26.4426 207.277L26.1919 195.41C20.3779 197.516 6.42047 198.441 3.51103 191.031C-1.8852 192.974 -19.219 192.059 -20.3199 185.452C-21.4748 178.504 -10.6823 173.697 -4.8438 172.448C-3.80682 167.956 -3.62989 163.651 -3.20232 159.163C-3.07945 157.894 -2.78458 156.723 -1.782 156.428C-1.03006 156.206 0.989839 156.138 1.10287 157.392C1.54519 162.243 0.488531 166.942 -0.243744 171.892C4.86744 172.025 9.1235 173.383 13.2763 175.729C14.2789 176.295 16.4364 174.529 16.4757 173.422C16.6477 168.63 16.1956 163.695 16.8492 159.031C17.036 157.697 18.1074 156.694 19.1886 156.782C20.2698 156.871 21.1593 158.086 21.1102 159.414L20.5843 172.817C22.2799 172.832 23.6707 172.458 25.3859 172.182L24.9338 154.165L2.75418 154.179L-27.7262 153.732L-91.7093 153.304L-89.0505 172.098C-83.7378 173.491 -77.1867 175.616 -74.4836 180.9C-73.2992 183.213 -73.6777 185.702 -75.6435 187.39C-78.607 189.934 -82.6665 190.997 -86.4655 190.318C-87.3255 191.631 -88.2789 192.773 -89.7926 193.299C-99.5678 196.709 -115.486 195.553 -118.455 184.251L-125.699 156.654C-126.082 155.188 -125.399 154.199 -124.121 153.953C-122.843 153.707 -121.924 154.376 -121.526 155.818L-115.983 175.823C-111.142 174.47 -106.335 173.83 -101.421 174.608C-99.1058 174.977 -97.312 176.315 -95.2822 177.279C-91.267 179.193 -88.274 182.465 -86.1853 186.16C-83.8804 186.534 -80.4303 185.791 -79.0591 184.054C-78.0762 182.809 -79.8897 181.137 -80.8284 180.438C-87.3353 175.606 -92.8004 178.288 -93.3459 174.386L-96.3094 153.186L-119.492 152.782L-141.548 152.206C-140.786 160.546 -139.243 168.733 -137.671 177.402C-131.139 178.14 -125.63 181.525 -121.816 186.426C-119.609 190.116 -120.799 193.648 -124.116 195.848C-127.758 198.259 -132.039 197.388 -135.818 198.46C-140.153 202.131 -144.463 202.893 -150.35 202.362C-150.788 204.906 -150.817 207.105 -152.405 208.916C-154.552 211.361 -158.592 212.04 -161.502 210.593C-165.595 208.566 -164.652 201.875 -165.541 198.475C-169.792 199.39 -173.41 197.973 -175.341 194.514C-176.983 191.582 -176.019 188.714 -176.191 185.663C-176.363 182.613 -178.845 166.563 -179.794 165.624C-180.054 165.368 -180.875 165.953 -180.89 166.652C-181.047 175.041 -180.664 183.188 -180.457 191.616L-180.202 202.136C-180.172 203.326 -181.868 203.489 -182.546 203.41C-183.224 203.331 -184.561 202.982 -184.635 201.781C-185.372 189.845 -185.529 178.116 -185.568 166.042C-189.977 166.061 -193.766 165.879 -198.4 165.422C-198.838 173.83 -198.43 182.076 -197.771 190.49C-197.653 191.976 -198.597 193.083 -199.732 193.122C-201.03 193.166 -202.062 192.615 -202.234 191.056C-202.696 186.834 -202.902 182.839 -202.956 178.534L-215.916 177.451C-216.85 184.477 -217.11 190.957 -217.538 197.619C-217.646 199.312 -218.398 200.532 -219.907 200.507C-221.415 200.482 -222.285 199.282 -222.212 197.486C-221.715 185.757 -220.27 174.332 -218.132 162.799C-219.459 161.988 -220.595 161.747 -221.769 161.2C-227.706 158.435 -226.885 152.295 -225.008 146.917C-228.945 142.78 -231.466 138.041 -233.407 132.708C-238.44 118.888 -240.607 99.2956 -233.181 86.1295C-229.554 79.694 -223.209 75.5512 -215.695 75.0986C-214.977 75.0543 -213.065 76.2893 -212.613 75.3348L-205.939 61.2387C-205.959 58.8524 -208.662 56.9336 -210.156 55.4182C-212.176 53.3665 -213.616 50.2275 -212.053 47.856C-210.962 46.2028 -211.036 45.3074 -211.522 43.5017C-212.83 38.6357 -211.178 33.8042 -208.505 29.4548C-211.439 27.9985 -212.677 25.5433 -212.255 22.483C-211.404 16.3231 -202.706 9.36602 -195.629 13.3365C-193.24 14.6748 -191.687 16.8397 -190.291 19.2407C-182.335 18.5666 -175.056 21.5531 -169.365 26.7192C-165.708 30.0403 -161.963 33.9026 -163.512 39.354C-158.798 47.1869 -155.943 53.7158 -159.816 62.8033C-160.445 64.2793 -161.615 65.1649 -162.652 66.5179C-154.798 72.8796 -148.674 80.865 -145.121 90.6018C-142.138 89.234 -139.823 88.1024 -136.594 87.3792C-134.751 76.5648 -139.13 80.2647 -138.762 75.0986C-138.599 72.8501 -139.332 65.3371 -135.96 65.8636C-132.432 66.4097 -135.641 71.7283 -134.506 74.2228C-133.321 72.7911 -133.66 66.6606 -131.473 66.4835C-128.687 66.2572 -129.542 72.1219 -129.208 74.2327C-126.883 71.2019 -129.906 68.2547 -127.733 66.6065C-124.583 64.2202 -122.745 72.978 -125.91 77.967C-127.276 80.1171 -129.198 81.0913 -131.758 81.1405C-131.577 83.1872 -132.23 85.421 -131.547 87.2365C-130.564 87.7285 -128.756 87.5612 -128.018 88.3435C-125.025 91.5022 -128.667 95.9303 -128.146 99.9796C-127.178 100.413 -126.146 99.9304 -125.197 99.5367C-121.261 97.8983 -117.467 96.4912 -113.152 95.7532C-113.058 92.0188 -113.515 88.6239 -113.54 84.9486L-113.604 75.5955C-113.619 73.657 -112.474 72.1957 -110.827 71.4528L-99.3515 66.2572C-94.3829 64.0087 -83.4724 57.2042 -81.2068 52.2398C-84.1408 50.2865 -85.9445 47.6051 -88.0332 44.8252C-97.9656 51.4723 -109.53 55.4969 -121.413 54.8917C-122.917 54.813 -122.514 51.9544 -121.924 50.9901L-121.959 51.0048ZM-54.3928 7.57511C-53.7735 5.09538 -53.459 3.22082 -53.7932 1.14946L-65.2737 -1.92561C-66.232 1.94651 -67.1904 5.36106 -67.6425 9.47919L-54.3928 7.57511ZM49.089 30.9751L58.2695 31.2506C56.7656 30.2076 55.0012 30.1387 53.2467 29.4548C50.0228 28.2051 53.9348 22.8914 52.4555 14.1631C51.5119 8.62309 47.1232 5.25282 41.5795 5.96624C36.7534 6.58617 32.5907 8.73625 29.524 12.5543L23.4987 20.0623C17.6602 20.1214 12.4114 19.6687 6.48927 20.3625C12.9127 23.4818 19.4491 25.2137 26.3 27.044C33.7751 29.0415 41.0438 30.7488 49.0939 30.9653L49.089 30.9751ZM-65.8045 26.4388C-60.0986 25.6122 -56.049 16.7413 -55.4494 12.0819L-68.3453 14.2861C-68.5861 16.1558 -69.5002 26.9702 -65.8045 26.4339V26.4388ZM-194.695 20.0328C-196.189 18.6699 -197.771 17.2431 -199.801 16.9577C-203.988 16.3723 -207.876 20.1755 -207.807 24.2444C-207.792 25.0858 -207.055 25.7696 -206.593 25.9222C-206.072 26.0944 -198.228 20.4904 -194.695 20.0328ZM-193.83 36.3725L-184.463 32.7513C-181.18 30.9358 -177.916 29.7057 -174.338 28.0919C-182.767 22.6306 -193.54 22.2665 -201.339 28.1165C-205.753 31.4278 -208.121 36.7907 -207.173 42.1683C-202.681 39.5853 -198.415 38.1437 -193.83 36.3725ZM56.5691 41.9666C56.1022 41.3565 56.225 40.279 56.5199 39.7919C57.2276 38.621 62.6336 41.0515 67.0076 38.3257C66.123 35.8854 63.7443 35.4967 61.5377 35.5902C52.1705 35.9936 43.0588 35.4426 33.8538 33.6861C28.0594 32.5791 22.8057 30.2617 16.7559 29.5975C13.3255 30.7586 10.2342 35.8903 10.2391 39.6443C10.244 43.3984 12.8537 46.4341 16.0777 48.1217C25.9511 53.2829 37.5053 51.241 46.1107 44.2643C47.3935 43.2262 49.9294 42.4488 50.6125 44.2446C51.2956 46.0405 49.3053 47.2508 48.2978 48.535C50.7305 51.5707 57.5569 56.663 60.9135 54.503C63.8623 52.6088 58.3236 44.2545 56.5691 41.9568V41.9666ZM-170.874 31.6344C-171.729 31.0588 -174.152 32.0182 -173.68 33.0563C-172.761 35.0785 -171.498 36.7612 -170.274 38.498C-169.832 39.1277 -168.524 38.2815 -168.082 37.9026C-166.47 36.5398 -169.154 32.7906 -170.874 31.6344ZM-73.7907 40.9334C-75.4813 41.5484 -76.1546 43.0638 -77.5946 42.3652C-78.8724 41.7452 -78.838 39.8854 -78.4743 38.7833C-77.6044 36.1314 -74.5574 39.2901 -73.3631 33.9173C-77.0687 32.7021 -80.7547 39.9248 -84.421 42.5374L-77.4963 49.7355C-73.5155 44.343 -76.7935 46.7244 -73.7858 40.9383L-73.7907 40.9334ZM-174.068 39.9346C-175.705 38.3208 -176.25 36.461 -177.292 34.5717C-178.767 35.2999 -179.813 35.7673 -181.332 35.9297L-178.447 42.1487C-176.717 41.7501 -175.316 41.4156 -174.063 39.9395L-174.068 39.9346ZM-68.3945 47.3246C-65.8241 45.6272 -61.2388 39.5066 -64.1188 36.6234C-64.8756 35.8657 -67.0331 35.2064 -68.2765 35.6787L-70.8518 46.0602C-70.5667 46.5718 -68.9891 47.7182 -68.3994 47.3295L-68.3945 47.3246ZM-182.084 43.4525L-184.713 37.4795C-185.593 37.9223 -187.121 38.4291 -187.126 39.2606C-187.141 41.3368 -186.158 43.0195 -185.706 45.1696C-184.433 44.8055 -183.219 44.7219 -182.079 43.4476L-182.084 43.4525ZM-192.09 48.1118C-190.773 47.7871 -190.439 47.1623 -189.849 46.4833C-190.208 44.3381 -190.621 42.3504 -191.476 40.3479C-192.449 40.7268 -194.002 41.3024 -193.908 42.1339C-193.672 44.2249 -192.729 45.9863 -192.095 48.1118H-192.09ZM-194.911 65.8636C-187.038 70.5081 -177.626 71.069 -169.847 66.5868C-164.622 63.5757 -161.733 57.9865 -162.73 52.043C-163.354 48.3283 -164.809 44.958 -167.016 42.0306L-184.748 49.6321L-195.28 54.8278C-197.368 55.861 -199.747 55.9692 -201.826 57.3075C-201.044 61.2534 -198.317 63.8512 -194.911 65.8636ZM-196.896 49.8831C-196.852 47.2951 -197.26 45.4255 -197.776 43.2016C-198.966 43.3295 -201.128 43.5853 -201.526 44.6727C-201.202 46.8474 -200.371 49.2927 -199.658 51.2213C-198.99 51.5953 -196.906 50.749 -196.896 49.8831ZM-204.165 52.6875C-203.801 50.9114 -204.696 48.471 -205.541 47.2164C-207.08 47.0146 -207.694 49.2877 -207.718 50.562C-207.743 51.7724 -207.374 52.5153 -206.618 53.0024C-206.072 53.3517 -204.421 53.9618 -204.16 52.6875H-204.165ZM-65.2835 53.5584C-68.3846 51.1574 -72.0362 50.2226 -75.8745 51.2951C-72.5669 52.5793 -69.3381 53.9471 -65.2835 53.5584ZM60.4319 93.5293C60.889 96.2108 58.9821 97.6031 56.977 97.9721C51.969 98.8971 47.1871 99.1825 42.0611 99.7483C42.4248 101.962 44.0614 103.148 45.7324 104.358C49.4527 107.055 52.3032 110.513 54.7212 114.607C61.5672 113.574 68.0446 112.26 74.3894 110.095C78.0802 108.836 80.6063 106.208 80.9061 102.11C81.7416 90.7248 74.3156 74.5082 67.8628 64.9091C61.69 55.7282 61.2772 61.6864 55.7336 59.3936C51.4234 57.6125 47.7326 54.9606 44.8477 50.9458C40.8374 54.4538 28.5 56.1759 24.0245 55.6986L22.1177 75.4282L20.8694 93.5195C34.4582 94.8282 52.0592 142.337 65.7463 139.719C59.0348 113.634 66.2359 115.404 70.4201 139.896L60.4319 93.5293ZM-49.9598 61.6077C-47.8662 61.3469 -47.2076 60.9189 -47.4681 59.7725C-47.6598 58.9361 -48.0972 58.1242 -49.3356 58.4637C-50.2694 59.2608 -50.8051 60.7565 -49.9598 61.6077ZM-189.195 109.416C-188.684 111.847 -187.416 113.175 -184.782 113.234C-177.911 113.392 -171.134 112.757 -164.234 111.532C-153.024 109.542 -150.483 105.059 -150.473 104.969C-149.493 96.1963 -152.026 81.556 -165.831 69.593C-177.779 76.9977 -192.69 75.2216 -202.991 65.3617C-206.475 71.6004 -208.613 77.6324 -210.844 84.063C-214.697 96.8651 -215.744 115.768 -210.323 128.137C-206.593 136.649 -196.675 136.231 -188.773 134.597L-173.508 131.444L-173.685 117.574C-180.231 117.746 -191.667 120.403 -193.353 111.694C-194.842 103.989 -195.039 96.1763 -193.653 88.4911C-193.417 87.1873 -191.864 86.5034 -190.969 86.6264C-187.397 87.1184 -191.702 97.4506 -189.195 109.411V109.416ZM-48.5051 107.63C-48.8245 103.183 -48.7262 98.8086 -48.3577 94.3313C-48.0087 90.1246 -42.3618 92.6929 -39.4082 91.9598C-39.5851 88.6092 -39.1477 84.6042 -41.4576 82.1097C-47.2273 75.876 -45.8758 74.2228 -47.3108 66.1194C-53.7539 65.0075 -46.4852 73.7603 -54.2994 80.4861C-55.5281 81.5439 -56.1964 83.2709 -56.2013 84.9683C-56.2407 94.8725 -56.0981 104.447 -55.5772 114.282C-55.4936 115.857 -54.1814 117.146 -52.5498 117.21C-48.2299 117.382 -43.6396 117.466 -39.59 115.911C-38.5137 114.4 -38.7054 111.424 -39.2165 109.953C-42.4159 109.864 -48.1856 112.093 -48.5051 107.635V107.63ZM97.198 110.159C99.1688 100.58 102.589 86.6756 93.0943 80.0138C88.8776 77.0568 97.1685 95.4871 91.9492 95C95.6057 101.642 87.8062 99.3006 84.7051 106.43L97.1931 110.159H97.198ZM-210.284 145.23C-212.225 140.944 -213.527 137.402 -212.564 133.038C-221.263 119.99 -219.494 94.7003 -214.505 79.8268C-221.003 79.5119 -226.846 83.4234 -229.746 89.2488C-236.012 101.834 -233.623 120.737 -228.325 133.417C-224.521 142.524 -221.209 146.534 -210.279 145.235L-210.284 145.23ZM-5.27626 92.3829C-4.16065 91.4678 -5.71368 88.5551 -7.2028 88.4763C-9.18339 88.373 -11.508 90.1197 -10.8936 92.2107C-9.20302 92.1713 -6.81947 93.2685 -5.2812 92.3829H-5.27626ZM-136.545 96.2501C-137.076 95.0939 -136.501 93.4407 -135.331 93.5145C-133.955 93.5982 -132.751 94.346 -131.439 94.041C-130.967 93.9278 -131.031 92.9733 -131.237 92.6978C-133.346 89.8835 -141.902 94.3952 -144.929 95.581C-143.431 99.0743 -142.841 102.671 -142.497 106.44C-139.351 105.854 -136.403 104.998 -133.655 103.345C-133.169 101.997 -132.948 100.688 -132.668 99.1382C-134.122 98.4248 -135.72 98.0361 -136.535 96.255L-136.545 96.2501ZM7.10359 100.939C6.20913 104.673 -0.0618899 101.303 -2.42581 100.235C-2.69611 101.864 -3.08437 103.31 -4.29337 103.807C-5.28611 104.216 -7.13399 104.57 -7.75815 103.517C-9.00646 101.421 -4.69145 98.8479 -6.60323 97.7015C-7.537 97.1407 -9.65519 96.6388 -10.7511 97.1259C-11.911 97.6376 -16.4816 101.874 -17.7299 100.235C-18.875 98.7298 -15.5085 95.4875 -14.8155 93.1209C-16.914 93.5637 -18.3884 94.8676 -20.0643 96.1123L-25.1067 99.8664C-26.0601 100.575 -26.3746 101.731 -26.2026 102.794C-25.5687 106.735 0.22806 112.373 15.8909 105.072C21.4051 102.504 10.3964 99.2809 8.09143 96.7766C5.91918 94.4198 3.44713 91.7925 -0.106125 93.0865C-0.971094 93.4014 -1.04973 95.7827 0.0167389 96.0435C2.38558 96.6191 7.77689 98.1099 7.10359 100.934V100.939ZM-85.2565 96.3731C-87.7482 94.0607 -92.2892 93.0914 -94.4566 96.7667C-92.8839 98.6216 -85.458 98.9758 -85.2565 96.3731ZM-38.956 105.431L-39.1772 96.752C-40.8039 96.4174 -42.3127 96.5502 -44.0082 96.6683C-44.3326 99.6696 -44.3867 102.405 -44.1704 105.426C-42.4257 105.839 -40.8186 105.751 -38.956 105.426V105.431ZM-73.083 134.671L-11.0165 134.711C7.79657 134.72 26.1575 134.794 44.7691 132.334C55.1487 130.961 64.4471 126.42 74.4926 123.965L97.8369 115.478C92.9223 113.903 87.8406 111.803 82.6852 111.089C73.4015 116.978 66.8455 116.388 57.9451 119.094C55.9203 119.709 53.979 119.119 52.3081 118.809C44.5823 121.623 43.9631 125.23 36.4388 122.135C34.4828 121.333 32.3892 121.175 32.2172 118.209C32.0059 114.661 28.2659 117.102 26.4229 114.036C25.6857 112.811 25.4498 111.06 25.9756 109.692C28.718 102.508 37.1613 101.77 35.5935 99.9599C35.2446 99.5564 22.388 98.8135 19.0412 97.8541C21.1004 99.6105 22.0096 101.633 21.8179 103.945C21.6262 106.258 20.0634 108.216 17.7142 109.328C8.99081 113.461 -0.838384 114.14 -10.5152 113.003C-16.3046 112.324 -21.6714 111.212 -26.7187 108.57C-29.1907 107.276 -30.5815 105.456 -30.7142 102.877C-30.8469 100.299 -30.0901 98.474 -27.4755 96.6339C-30.0606 96.1812 -32.1395 96.6683 -34.641 96.6634L-34.0562 113.466C-33.9284 117.156 -35.7812 120.073 -39.418 120.89C-45.6005 122.277 -59.7546 124.531 -60.1822 114.961C-60.4426 109.16 -60.7228 103.64 -60.6491 97.7311C-66.06 97.4408 -71.0238 97.1702 -76.479 97.8491C-72.4687 99.3793 -68.6844 101.269 -66.2812 104.905C-64.7331 107.247 -65.8438 110.356 -67.8244 112.181C-69.4953 113.716 -71.5693 114.779 -73.8202 115.547C-87.1879 120.113 -103.765 121.904 -117.02 116.388C-121.01 114.725 -122.956 110.144 -120.558 106.533C-118.573 103.542 -115.344 102.4 -112.532 100.28C-117.708 101.274 -122.16 103.36 -126.996 104.969C-133.326 107.079 -134.132 110.961 -144.084 111.084C-146.36 111.114 -148.439 113.092 -150.473 113.933C-148.355 116.054 -146.576 119.197 -148.05 121.81C-150.473 126.1 -154.557 128.747 -158.386 131.626L-118.563 133.653L-93.0215 134.322L-73.0781 134.681L-73.083 134.671ZM-78.9363 106.115C-81.831 109.795 -86.9815 100.221 -89.8369 103.581C-88.2298 105.146 -86.2295 108.024 -88.0332 109.889C-88.8097 110.691 -89.8811 110.676 -90.805 110.272C-93.7391 108.998 -94.6286 106.11 -94.6188 103.187C-95.4739 101.884 -97.4938 99.9254 -99.0419 99.522C-102.959 98.4986 -106.227 101.121 -109.151 103.168L-115.83 107.842C-116.631 108.403 -117.246 109.313 -117.044 110.233C-116.902 110.868 -116.268 111.817 -115.265 112.167C-105.647 115.522 -95.4051 115.734 -85.3695 113.716C-82.3224 113.106 -70.6257 110.961 -70.3849 107.783C-70.1883 105.195 -77.167 102.233 -79.8356 100.334C-80.4893 99.8664 -80.9857 98.843 -81.7032 99.4531C-85.0009 102.272 -76.9017 103.532 -78.9363 106.12V106.115ZM40.8325 113.997C41.722 115.389 39.3925 117.638 40.3066 118.641C43.7911 118.041 46.445 116.998 49.6198 115.173C46.7349 111.443 43.7272 107.625 39.4171 105.323C37.466 104.28 31.1704 108.27 30.8755 109.682C32.6447 109.864 34.0012 108.713 35.2888 109.431C37.7314 110.789 32.6349 115.36 35.5886 115.655C36.8369 115.778 39.5006 111.906 40.8374 114.002L40.8325 113.997ZM-156.248 124.408C-157.776 122.932 -160.165 121.967 -158.769 120.127C-157.295 118.179 -152.813 121.161 -152.134 120.009C-150.935 117.982 -155.982 115.473 -157.806 115.498C-161.678 115.547 -165.158 116.575 -169.104 116.841L-168.982 130.873C-166.239 130.351 -164.229 130.238 -162.077 129.426C-162.671 128.457 -163.104 127.754 -163.133 127.04C-163.295 123.163 -158.803 128.118 -156.248 124.408ZM91.9492 132.413C96.6525 130.779 96.9965 125.298 97.6158 120.787L89.7032 123.463C74.8906 128.472 60.4319 133.53 45.064 137.402C44.1597 141.003 43.1473 144.477 42.9703 148.561C48.3567 147.311 53.1976 145.879 58.3383 144.093L91.9492 132.418V132.413ZM38.3015 149.102C38.7291 145.028 39.5154 141.692 40.4049 137.963C17.7928 139.458 -4.46047 140.147 -27.1856 140.054L-66.5122 139.896L-109.181 138.863L-123.467 138.435L-133.297 137.963L-169.095 135.586C-170.608 135.488 -172.957 135.734 -173.901 136.708C-174.284 139.69 -173.98 143.355 -172.466 145.889C-171.724 146.967 -169.38 147.055 -168.107 147.085L-132.299 147.847L-97.8722 148.187L-53.3558 148.63L-11.9896 149.003C4.87728 149.156 21.1397 149.633 38.3015 149.112V149.102ZM-167.001 182.544L-167.979 168.517C-168.372 162.888 -168.195 157.338 -168.996 151.808C-172.358 151.473 -175.744 150.602 -177.096 147.567C-178.447 144.531 -178.491 141.033 -179.042 137.367C-187.588 138.839 -200.764 142.839 -208.289 137.22C-207.522 141.417 -205.723 145.146 -202.352 147.685C-191.436 155.906 -178.024 147.867 -175.783 160.541L-171.832 182.878C-169.95 182.844 -168.78 183.031 -166.996 182.544H-167.001ZM84.5626 187.1C84.7837 188.827 86.1205 189.781 87.2803 189.476C88.0716 189.27 89.4133 188.286 89.4182 186.972L89.6049 138.219L82.1642 140.802L83.4077 168.487C83.6878 174.75 83.7517 180.768 84.5577 187.1H84.5626ZM-180.727 161.707C-180.354 159.286 -182.094 157.471 -184.374 157.289L-194.778 155.931C-199.678 155.291 -203.959 153.043 -207.021 149.535C-211.802 151.065 -216.339 150.445 -220.939 149.053C-221.892 150.765 -222.497 152.974 -221.833 154.952C-220.732 158.224 -211.626 159.409 -208.372 159.715C-199.152 160.576 -190.277 161.747 -180.732 161.707H-180.727ZM-155.206 203.154L-155.855 176.403L-156.371 152.029L-164.337 151.744C-163.861 168.089 -162.327 183.828 -160.799 199.931C-160.578 202.249 -160.656 204.63 -159.403 206.421C-158.735 207.376 -156.847 206.815 -156.228 206.288C-155.609 205.762 -155.176 204.581 -155.211 203.159L-155.206 203.154ZM-142.477 177.594L-146.315 152.241C-148.532 152.448 -150.296 151.926 -152.031 152.571L-151.196 180.92C-148.778 178.77 -145.883 178.101 -142.472 177.594H-142.477ZM36.945 205.467C37.4955 196.901 37.4365 188.773 37.5692 180.335L37.982 153.801L29.637 154.091L30.1482 169.525L30.6347 191.641C30.7625 197.343 30.4627 202.997 31.6619 208.487C31.9617 209.87 34.5369 209.412 35.3085 208.847C36.1194 208.246 36.8418 207.061 36.945 205.467ZM-202.946 174.062L-202.76 165.343L-213.778 163.636L-215.434 173.087L-202.946 174.062ZM4.29735 185.353L9.58055 179.178C0.788335 174.273 -8.11693 176.522 -15.1006 182.568C-20.0692 186.873 0.984909 189.22 4.29735 185.353ZM26.0543 190.859L25.7103 176.891C19.9848 175.98 9.06454 184.044 7.88995 188.945C7.03973 192.497 22.4617 192.969 26.0543 190.859ZM-91.2719 186.475C-96.8353 179.351 -105.962 176.945 -114.621 180.251C-114.715 184.33 -112.218 187.779 -107.996 189.083C-101.779 191.006 -87.93 190.76 -91.2719 186.475ZM47.5508 184.418C47.7916 181.412 44.3858 179.592 42.071 180.507L42.0562 188.714C44.5872 188.433 47.3247 187.228 47.5508 184.418ZM-125.694 191.474C-125.256 189.949 -125.36 189.058 -126.033 188.315C-130.903 182.967 -138.477 179.966 -145.952 183.036L-135.616 192.827C-133.218 195.095 -128.225 192.374 -125.689 191.474H-125.694ZM-140.841 194.372C-143.391 190.667 -146.497 187.621 -150.945 186.012C-151.097 190.273 -150.974 193.801 -150.64 197.698C-149.068 198.5 -138.236 198.15 -140.841 194.372ZM-165.92 194.352C-166.121 191.602 -166.092 189.589 -166.632 187.252C-168.524 187.119 -170.078 187.065 -171.857 187.228C-172.269 189.324 -172.304 191.715 -170.741 193.211C-169.527 194.372 -167.561 194.524 -165.92 194.347V194.352Z" fill="#1E1E1E"/>
<path d="M37.7706 42.1388C36.0259 42.4833 32.2122 41.3418 32.2515 39.0392C32.2663 38.2716 32.6594 37.1302 33.7013 36.9285C35.8981 36.5004 38.036 37.2089 39.702 38.5668C40.4147 40.0675 39.6578 41.7649 37.7706 42.1388Z" fill="#1E1E1E"/>
<path d="M24.9041 35.7821C25.7052 36.9826 24.9385 38.1142 24.3635 38.5423C22.8941 39.6394 19.3162 39.1425 18.4218 37.1302C18.0434 36.2839 18.0728 34.8473 19.331 34.1978C20.9921 33.3466 23.7689 34.0846 24.8992 35.7771L24.9041 35.7821Z" fill="#1E1E1E"/>
</g>
<defs>
<clipPath id="clip0_936_3185">
<rect width="81.6329" height="86" rx="20" fill="white"/>
</clipPath>
</defs>
</svg>
