<?xml version="1.0" encoding="UTF-8"?>
<svg id="Layer_2" data-name="Layer 2" xmlns="http://www.w3.org/2000/svg" viewBox="0 0 592.92 462.2">
  <defs>
    <style>
      .cls-1 {
        fill: #fd7c33;
      }
    </style>
  </defs>
  <g id="Layer_1-2" data-name="Layer 1">
    <g>
      <path class="cls-1" d="M262.63,279.94c-10.76-2.14-20.42-4.64-30.23-8.24-3.24-1.19-4.93-3.22-4.03-6.66.69-2.65,3.26-4.91,6.87-3.85,9.48,2.78,18.52,6.15,28.57,7.31,3.39-22.22,4.06-38.28,21.55-52.76l-18.6-9.56-15.39,21.66c-17.67,24.87-49.96,71.87-72.19,90.49-15.14,12.68-34.6,3.57-45.9-9.47-13.28-15.31-24.15-31.72-34.29-49.47-15.34-26.85-28.79-53.89-41.81-81.89-2.92-6.27-5-12.17-7.34-18.9-14.73,3.8-28.37,9.67-42.08,16.01-2.92,1.35-6.72-1.06-7.47-3.06-.99-2.63.62-5.87,3.53-7.35,14.4-7.29,29.29-12.27,45.25-17.04,2.54-30.63,8-60.31,19.16-88.58,5.38-13.64,14.45-23.16,27.85-28.94C164.81.04,288.21-3.04,362.98,1.93c44.28,2.94,93.79,10.13,134.04,28.75,10.75,4.97,18.29,12.5,23.84,23.24,14.98,29.01,23.47,60.94,26.75,93.57,15.1,4.82,29.26,9.98,42.58,17.62,2.84,1.63,3.17,5.14,2.31,7.55s-4.61,3.96-7.44,2.38c-12.49-6.98-25.39-11.8-39.02-16.44-1.77,5.29-3.48,9.8-5.94,14.98-21.02,44.25-53.67,104.96-87.95,139.52-9.75,9.83-24.61,16.07-36.55,6.45-6.42-4.33-11.24-9.78-16.42-15.56-11.65-13.01-21.81-26.64-32.53-40.93-27.54,15.07-60.96,24.45-93.39,18.47-6.62,58.42-8.15,116.63-3.87,175.01.25,3.48-2.64,5.35-4.91,5.62-2.94.35-5.61-2.19-5.85-5.76-3.93-56.93-3.08-118.97,4-176.48ZM295.29,209.7c30.91-16.62,60.72-33.66,90.28-52.6,45.92-29.41,88.59-60.92,118.34-106.95-9.22-12.96-50.63-23.48-65.67-26.83-43.71-9.72-89.38-11.79-134.21-11.91-55.24-.15-121.48,4.23-174.52,18.45-13.8,3.7-26.44,8.03-39.1,16.01,16.28,32.44,53.77,64.62,82.23,86.9,34.03,26.65,69.92,49.28,108.67,68.22,5.14,2.51,9.24,5.26,13.99,8.69ZM163.33,312.88c5.81-.05,9.48-3.87,13.32-7.02,14.96-15.52,27.96-31.77,40.51-49.41l39.28-55.24c-47.21-25.89-90.54-56.14-129.62-92.41-15.6-14.48-33.54-34.8-44.07-53.83-13.38,22.68-19.33,60.82-22.4,86.96-1.01,8.61-.23,15.59,3.43,23.62,13.72,30.12,28.04,59.39,44.66,88.15,10.5,18.17,21.75,34.98,35.98,50.1,4.91,5.22,11.56,9.15,18.92,9.08ZM440.37,308.09c31.92-27.34,77.68-109.95,94.19-150.1,2.07-4.7,2.36-9.43,1.71-14.77-3.54-29.04-11.4-57.1-25.1-83.91-12.59,19.23-26.34,34.95-42.55,49.82-20.76,18.96-42.71,35.16-66.39,50.42-22.44,14.67-44.66,28.14-67.91,41.24l44.91,60.21c12.21,16.37,24.27,32.05,38.86,45.97,6.6,6.29,15.02,7.35,22.28,1.13ZM274.54,270.62c32.07,5.16,56.96-2.57,85.65-16.13l-35.75-48.1-25.87,14.39c-9.5,5.28-16.18,13.14-19.3,23.78-2.55,8.36-3.64,16.85-4.72,26.05Z"/>
      <path class="cls-1" d="M338.12,364.24c.87,19.22.51,73.94-1.46,91.7-.38,3.4-3.5,4.48-6.09,4.25-3.03-.27-4.52-2.52-4.36-6.16,2.3-50.44,2.57-111.78-4.03-161.61-.33-2.52,2.99-4.41,4.61-4.69,1.88-.33,5.13.25,5.7,2.93,2.58,12.19,3.41,24.32,3.97,36.78l1.67,36.8Z"/>
      <path class="cls-1" d="M292.98,332.96c7.23-2.65,13.95,1.12,16.26,7.41s-1.2,13.73-7.26,16.04c-6.67,2.54-13.62-.24-16.15-6.49s-.15-14.28,7.16-16.96Z"/>
      <path class="cls-1" d="M287.58,444.48c-2.01-6.19.17-12.18,5.03-15.12,4.3-2.6,10.53-2.65,14.71,1.43,5.62,5.49,4.97,14.51-1.04,19.02-5.97,4.48-16.03,2.87-18.7-5.34Z"/>
      <path class="cls-1" d="M415.41,128.46c-79.62-11.73-156.57-10.02-235.18.88-3.52.49-6.03-3.01-5.9-5.31.18-3,2.17-5.1,5.83-5.63,51.38-7.51,102.69-10.5,154.8-8.52,26.98,1.02,52.62,3.02,78.85,7.71,2.93.52,4.66,2.4,5.18,4.44.43,1.69-.17,6.94-3.59,6.43Z"/>
      <path class="cls-1" d="M300,232.74c7.24-2.02,13.79,2.27,15.33,8.72s-2.44,12.86-8.12,14.51c-7.07,2.05-13.53-1.33-15.61-7.84-2-6.24,1-13.32,8.4-15.38Z"/>
    </g>
  </g>
</svg>