<svg width="205" height="205" viewBox="0 0 205 205" fill="none" xmlns="http://www.w3.org/2000/svg">
<g clip-path="url(#clip0_813_1766)">
<rect width="205" height="205" fill="#003C69"/>
<g clip-path="url(#clip1_813_1766)">
<path d="M286.086 130.272C286.735 130.089 287.779 130.103 288.837 128.917C332.232 130.089 373.807 109.385 403.335 77.5045C411.954 68.1901 423.001 65.4945 435.571 68.6699C429.039 60.8091 426.584 53.2587 426.415 43.7326C425.949 19.4164 429.998 -4.88588 437.87 -27.7909C440.268 -34.7908 446.349 -36.95 452.796 -34.819C465.86 -30.5146 480.151 -29.5973 492.1 -21.7365C501.764 -15.3857 487.854 31.7791 482.112 44.7488C475.791 59.0309 464.971 68.1618 449.65 73.44C461.458 78.3936 467.75 85.3512 467.397 96.7543C467.045 108.157 461.218 117.119 452.641 124.867C459.822 131.613 467.567 140.363 461.331 148.633C456.732 154.73 422.422 147.334 414.141 141.52C395.378 169.125 353.083 188.953 322.709 200.794L324.783 256.892L353.859 255.41C364.778 239.66 384.529 236.852 399.074 248.678C400.95 250.202 403.659 253.053 406.142 252.714L424.115 250.287H461.642C461.994 240.182 461.515 230.699 462.657 220.904C464.477 205.465 478.415 206.594 478.825 187.852L479.586 153.332C479.812 143.171 487.303 136.75 497.503 137.357C505.389 137.822 511.244 142.861 511.949 151.032L515.039 187.132C516.915 209.092 533.068 207.243 534.902 229.64L536.412 247.958C547.91 248.622 558.335 248.452 569.283 247.817C574.616 247.507 571.625 233.733 583.348 236.626C597.018 240.013 597.413 224.842 615.866 224.432C622.977 224.277 628.958 228.892 632.344 234.947C638.114 245.235 645.154 226.267 666.922 248.876C670.59 252.686 679.576 249.088 684.119 250.118L685.248 220.043C652.786 215.316 609.786 188.487 590.712 160.191C577.846 166.062 547.966 170.818 546.485 153.784C545.878 146.939 549.081 143.256 556.445 138.218C543.339 136.214 534.592 129.171 532.885 118.121C528.808 91.7584 560.437 90.5729 553.158 87.9479C546.852 85.6758 540.108 85.958 534.649 81.7383C527.623 76.2908 521.486 69.4602 517.48 61.3313C509.664 45.4826 504.345 29.5493 497.997 12.9527C496.572 9.2128 494.089 1.60602 498.392 -1.16008C510.948 -9.23257 525.45 -13.6499 539.713 -17.5168C546.386 -19.3373 551.253 -16.5571 554.188 -10.5451C565.178 11.9224 571.611 36.2247 572.584 61.2889C572.937 70.5469 568.422 76.3896 563.329 86.579C581.613 86.1838 594.564 93.4802 607.5 103.698C624.684 117.26 666.16 142.536 689.762 140.165C675.81 133.575 662.196 127.252 655.763 112.956C647.834 95.3431 654.93 75.7404 669.631 63.0954C658.33 58.2406 636.463 51.0713 640.033 37.0573C643.136 24.8639 687.505 27.8558 699.214 28.0675C713.632 2.18469 743.667 -19.549 773.872 -10.4039C800.183 -2.44435 804.062 33.7408 798.419 57.2103C813.655 66.8352 819.355 63.2365 835.579 78.3795C842.449 84.7867 843.916 95.5971 837.441 102.583C832.461 107.96 825.252 109.103 817.803 109.385C822.783 121.946 828.257 129.115 824.871 143.482C838.556 155.294 847.415 169.52 856.247 186.596C872.357 186.709 887.791 189.786 901.786 196.56C950.457 220.128 930.41 274.42 929.776 302.561C929.268 324.802 932.4 347.792 918.913 367.592C916.401 371.276 910.758 372.334 906.314 374.931L906.103 518.063C906.103 527.49 901.278 535.238 893.378 538.258C885.901 541.109 875.151 540.22 870.312 533.276C865.473 526.333 865.388 517.992 865.007 509.722L859.52 392.304L817.309 406.642L816.223 440.866C828.356 438.453 838.612 433.09 849.348 427.614C851.393 426.57 855.329 425.652 856.712 428.051C864.556 441.755 823.531 452.664 815.221 457.011C814.601 483.712 814.502 508.847 812.555 534.518C812.273 538.3 806.461 538.484 804.232 537.694C801.65 536.776 799.999 533.276 800.155 529.367L804.514 411.116L758.085 424.015L757.126 488.299C765.69 488.172 774.352 489.753 779.952 496.386C788.614 506.645 786.258 521.944 776.298 530.482C770.796 535.182 764.42 537.454 756.773 538.117C754.389 560.062 763.602 598.618 731.478 597.179C720.15 596.671 712.32 590.179 712.08 578.522L711.361 544.482C694.672 550.522 654.606 553.175 646.254 531.921C630.764 537.496 581.006 534.871 577.846 515.918C574.531 495.99 605.511 482.202 622.271 478.618C625.248 465.733 625.756 453.384 626.983 440.513C627.336 436.872 628.182 433.513 631.06 432.666C633.219 432.031 639.017 431.834 639.341 435.432C640.611 449.348 637.578 462.825 635.476 477.023C650.148 477.404 662.365 481.299 674.286 488.031C677.164 489.654 683.357 484.587 683.47 481.412C683.964 467.666 682.666 453.511 684.542 440.132C685.078 436.307 688.154 433.428 691.258 433.682C694.361 433.937 696.915 437.422 696.774 441.233L695.264 479.676C700.131 479.718 704.124 478.646 709.047 477.855L707.749 426.174L644.082 426.217L556.586 424.933L372.919 423.705L380.551 477.616C395.801 481.609 414.607 487.706 422.366 502.863C425.766 509.496 424.679 516.637 419.036 521.478C410.53 528.774 398.877 531.823 387.971 529.875C385.503 533.643 382.766 536.917 378.421 538.427C350.36 548.208 304.666 544.891 296.145 512.474L275.35 433.316C274.25 429.11 276.211 426.273 279.879 425.568C283.547 424.862 286.185 426.781 287.327 430.916L303.241 488.299C317.137 484.418 330.934 482.583 345.042 484.813C351.687 485.872 356.836 489.71 362.662 492.476C374.188 497.966 382.78 507.351 388.776 517.95C395.392 519.022 405.296 516.891 409.232 511.91C412.053 508.339 406.847 503.541 404.153 501.537C385.474 487.678 369.787 495.369 368.221 484.178L359.714 423.366L293.168 422.209L229.853 420.558C232.04 444.479 236.469 467.962 240.984 492.829C259.733 494.946 275.548 504.656 286.495 518.712C292.829 529.296 289.415 539.429 279.893 545.738C269.439 552.653 257.151 550.155 246.302 553.232C233.859 563.76 221.487 565.947 204.586 564.423C203.331 571.719 203.246 578.028 198.689 583.221C192.524 590.235 180.928 592.183 172.576 588.034C160.824 582.219 163.533 563.026 160.979 553.274C148.776 555.899 138.393 551.835 132.849 541.913C128.137 533.502 130.902 525.274 130.408 516.524C129.914 507.774 122.79 461.739 120.067 459.043C119.32 458.309 116.964 459.989 116.921 461.993C116.47 486.055 117.57 509.426 118.163 533.601L118.896 563.774C118.981 567.189 114.114 567.655 112.167 567.429C110.22 567.203 106.383 566.201 106.171 562.758C104.055 528.52 103.604 494.875 103.491 460.243C90.8362 460.299 79.9592 459.777 66.6557 458.465C65.4001 482.583 66.571 506.236 68.4614 530.369C68.8 534.631 66.0914 537.806 62.8325 537.919C59.1081 538.046 56.1455 536.466 55.6517 531.992C54.3256 519.883 53.7331 508.424 53.5779 496.075L16.376 492.97C13.6956 513.123 12.9479 531.71 11.7205 550.818C11.4101 555.673 9.25165 559.173 4.92061 559.103C0.58956 559.032 -1.90749 555.589 -1.69588 550.437C-0.271007 516.793 3.87664 484.023 10.0135 450.942C6.20441 448.614 2.94554 447.922 -0.426189 446.356C-17.4682 438.424 -15.1123 420.812 -9.72313 405.386C-21.0234 393.518 -28.2606 379.927 -33.8331 364.629C-48.2793 324.986 -54.5008 268.789 -33.1841 231.023C-22.7727 212.564 -4.55973 200.681 17.0109 199.382C19.0706 199.255 24.5585 202.798 25.8564 200.06L45.0145 159.627C44.9581 152.782 37.1989 147.278 32.9102 142.931C27.1119 137.046 22.9784 128.042 27.4646 121.24C30.5965 116.498 30.3849 113.93 28.9882 108.75C25.2356 94.7926 29.9758 80.9339 37.6503 68.4582C29.2281 64.2808 25.673 57.2385 26.8862 48.4604C29.3268 30.7913 54.2974 10.8358 74.6124 22.2248C81.4687 26.0634 85.9267 32.2731 89.9333 39.1601C112.774 37.2266 133.667 45.7931 150.004 60.6115C160.5 70.1376 171.25 81.2162 166.806 96.8531C180.335 119.321 188.532 138.048 177.415 164.115C175.609 168.348 172.251 170.889 169.275 174.77C191.819 193.017 219.653 233.606 229.853 261.535C275.778 240.494 271.626 234.904 278.581 288.434C281.36 289.676 274.066 270.609 276.789 269.48C288.089 264.781 298.98 260.745 311.367 258.628C311.635 247.916 310.323 238.178 310.252 227.636L310.069 200.808C310.027 195.247 313.314 191.056 318.04 188.925L350.981 174.022C365.244 167.572 396.563 148.054 403.067 133.814C394.644 128.212 389.467 120.52 383.471 112.546C354.959 131.613 321.764 143.157 287.652 141.421C283.335 141.195 284.492 132.996 286.185 130.23L286.086 130.272ZM480.038 5.69873C481.815 -1.4141 482.718 -6.79108 481.759 -12.7325L448.804 -21.553C446.053 -10.4463 443.302 -0.652002 442.004 11.1604L480.038 5.69873ZM516.774 27.5876C529.09 24.8074 540.179 24.1864 552.862 22.9869C550.308 13.2914 547.289 4.61204 542.478 -4.39189L515.208 4.62616C505.77 7.74508 513.544 17.0736 516.774 27.5735V27.5876ZM777.088 72.819L803.442 73.6094C799.125 70.6175 794.06 70.4199 789.024 68.4582C779.769 64.8736 790.999 49.6317 786.752 24.5957C784.044 8.70477 771.445 -0.96249 755.532 1.08386C741.678 2.86206 729.729 9.02936 720.926 19.9808L703.63 41.5169C686.87 41.6863 671.803 40.3879 654.803 42.3778C673.242 51.3253 692.005 56.293 711.671 61.5429C733.129 67.2727 753.994 72.1699 777.103 72.7908L777.088 72.819ZM447.28 59.8071C463.659 57.4361 475.284 31.9908 477.005 18.626L439.986 24.9485C439.295 30.3114 436.671 61.3313 447.28 59.793V59.8071ZM77.2928 41.4322C73.0041 37.523 68.4614 33.4303 62.635 32.6118C50.6153 30.9324 39.4561 41.8415 39.6536 53.5128C39.6959 55.9261 41.8121 57.8877 43.1382 58.3252C44.6336 58.8192 67.1494 42.7447 77.2928 41.4322ZM553.539 74.0892C562.991 70.8433 558.547 44.2689 556.247 35.5755C544.679 36.0271 534.479 38.3133 522.121 40.1057C525.323 51.5088 540.405 78.5912 553.539 74.0892ZM79.7758 88.3007L106.665 77.9138C116.089 72.7061 125.456 69.1779 135.727 64.549C111.532 48.8838 80.6081 47.8395 58.2193 64.6195C45.5506 74.1174 38.7507 89.5004 41.4735 104.926C54.3679 97.5164 66.6133 93.3813 79.7758 88.3007ZM798.56 104.347C797.22 102.597 797.573 99.5063 798.419 98.1091C800.451 94.7503 815.969 101.722 828.525 93.9035C825.986 86.9036 819.157 85.7887 812.823 86.0568C785.934 87.2141 759.778 85.6334 733.355 80.5952C716.722 77.4198 701.641 70.7727 684.274 68.8675C674.427 72.1981 665.553 86.9177 665.568 97.6857C665.582 108.454 673.073 117.161 682.327 122.002C710.67 136.806 743.837 130.949 768.539 110.938C772.221 107.96 779.501 105.73 781.462 110.881C783.423 116.032 777.709 119.504 774.817 123.188C781.8 131.895 801.396 146.502 811.032 140.306C819.496 134.873 803.597 110.909 798.56 104.319V104.347ZM145.673 74.7102C143.218 73.059 136.263 75.8109 137.617 78.7887C140.255 84.5891 143.881 89.4157 147.394 94.3975C148.663 96.2039 152.416 93.7765 153.686 92.6898C158.313 88.7806 150.61 78.0266 145.673 74.7102ZM424.355 101.383C419.502 103.147 417.569 107.494 413.436 105.49C409.768 103.712 409.866 98.3773 410.91 95.216C413.407 87.6092 422.154 96.6696 425.582 81.2585C414.945 77.7726 404.364 98.4902 393.84 105.984L413.718 126.631C425.145 111.163 415.735 117.994 424.369 101.397L424.355 101.383ZM136.503 98.5184C131.805 93.8894 130.239 88.5548 127.248 83.1355C123.016 85.2242 120.011 86.5649 115.652 87.0306L123.933 104.869C128.899 103.726 132.919 102.766 136.517 98.5325L136.503 98.5184ZM439.845 119.716C447.224 114.847 460.386 97.2906 452.119 89.0205C449.946 86.8471 443.753 84.956 440.184 86.3108L432.791 116.089C433.61 117.557 438.138 120.845 439.831 119.73L439.845 119.716ZM113.493 108.609L105.945 91.4761C103.42 92.7463 99.0327 94.1999 99.0186 96.5849C98.9763 102.541 101.798 107.367 103.096 113.534C106.75 112.49 110.234 112.25 113.507 108.595L113.493 108.609ZM84.7699 121.974C88.5507 121.042 89.51 119.25 91.203 117.302C90.1731 111.149 88.9881 105.448 86.5333 99.7039C83.74 100.791 79.282 102.442 79.55 104.827C80.2272 110.825 82.9359 115.877 84.7558 121.974H84.7699ZM602.111 135.847L615.584 126.405L591.164 108.454C586.551 105.067 581.726 102.103 576.703 101.186C577.367 104.601 577.437 106.958 578.227 108.172C579.864 110.684 590.035 108.651 588.709 115.341C587.524 121.296 581.246 120.337 581.712 123.95C582.558 130.526 590.43 125.417 602.125 135.847H602.111ZM565.77 111.954C563.188 109.583 564.246 105.038 562.483 103.19C558.716 99.2523 543.875 105.829 545.159 115.637C546.358 124.81 557.263 124.458 565.925 131.5C570.933 126.264 572.048 117.726 565.784 111.954H565.77ZM76.6721 172.893C99.2725 186.215 126.289 187.824 148.621 174.967C163.618 166.33 171.913 150.298 169.049 133.25C167.257 122.595 163.081 112.928 156.747 104.53L105.847 126.335L75.614 141.238C69.6183 144.201 62.7902 144.512 56.8226 148.351C59.0657 159.669 66.8955 167.121 76.6721 172.893ZM70.9726 127.054C71.0996 119.631 69.9286 114.268 68.4473 107.889C65.0333 108.256 58.8259 108.99 57.6832 112.109C58.6143 118.347 60.9985 125.361 63.0441 130.893C64.9627 131.966 70.9444 129.538 70.9726 127.054ZM50.1074 135.099C51.1514 130.004 48.5838 123.004 46.1573 119.405C41.7416 118.827 39.9781 125.347 39.9076 129.002C39.837 132.474 40.8951 134.605 43.0677 136.002C44.6336 137.004 49.3738 138.754 50.1215 135.099H50.1074ZM636.294 185.509C651.432 195.544 667.416 202.092 685.657 206.509L691.06 154.264C662.774 151.611 639.412 141.294 615.739 126.391C618.236 131.401 621.34 134.958 617.729 139.742C613.877 145.443 607.472 148.802 601.293 153.318C610.957 166.302 623.061 175.588 636.28 185.495L636.294 185.509ZM448.775 137.597C439.873 130.71 429.391 128.028 418.373 131.105C427.868 134.788 437.137 138.712 448.775 137.597ZM809.649 252.249C810.961 259.94 805.487 263.934 799.731 264.993C785.356 267.646 771.629 268.464 756.915 270.087C757.959 276.438 762.656 279.839 767.453 283.311C778.132 291.045 786.315 300.966 793.256 312.708C812.908 309.744 831.502 305.976 849.715 299.766C860.309 296.154 867.561 288.617 868.421 276.861C870.82 244.205 849.503 197.689 830.98 170.155C813.26 143.82 812.075 160.911 796.162 154.334C783.79 149.226 773.195 141.619 764.914 130.103C754.192 136.199 743.555 139.488 730.928 142.042C733.905 155.435 736.275 168.715 736.91 182.503C737.093 186.356 733.059 188.092 730.688 188.007C728.318 187.923 724.707 187.485 724.213 184.056L718.485 143.905C713.9 143.214 709.851 142.72 705.139 143.736L699.666 200.328L696.082 252.221C735.09 255.975 756.943 259.22 796.232 251.712L782.097 196.814C780.982 192.467 783.465 188.657 787.147 188.205C789.602 187.895 793.608 189.052 794.582 192.862C799.632 212.479 806.15 231.757 809.649 252.221V252.249ZM591.658 145.105C586.903 140.179 582.981 139.953 579.44 139.036C572.697 143.383 565.304 145.937 559.958 152.923C571.808 153.77 581.669 149.691 591.658 145.105ZM492.763 160.685C498.773 159.937 500.663 158.709 499.916 155.421C499.365 153.022 498.11 150.693 494.555 151.667C491.874 153.953 490.336 158.244 492.763 160.685ZM93.0793 297.819C94.5465 304.791 98.1862 308.601 105.748 308.77C125.47 309.222 144.925 307.401 164.732 303.887L161.896 267.067C161.064 256.214 159.71 245.715 160.909 234.904C161.346 230.995 165.183 229.951 168.217 230.473C176.865 231.997 171.292 250.908 175.623 262.114L207.027 249.059C197.913 222.725 181.139 201.767 160.147 183.59C125.851 204.83 83.0487 199.735 53.4791 171.453C43.4768 189.348 37.34 206.65 30.9351 225.096C19.8747 261.817 16.8698 316.039 32.4305 351.518C43.1382 375.933 71.6074 374.733 94.2925 370.048L138.111 361.002L137.603 321.218C118.812 321.712 85.9831 329.333 81.1442 304.353C76.8696 282.253 76.3053 259.841 80.2837 237.797C80.9608 234.057 85.4188 232.096 87.9864 232.449C98.2427 233.86 85.8844 263.497 93.0793 297.805V297.819ZM496.939 292.696C496.022 279.938 496.304 267.392 497.362 254.549C498.364 242.483 514.573 249.85 523.052 247.747C522.544 238.136 523.8 226.648 517.169 219.493C500.607 201.612 504.486 196.87 500.367 173.627C481.872 170.437 502.737 195.544 480.306 214.836C476.779 217.87 474.86 222.824 474.846 227.693C474.733 256.101 475.143 283.565 476.638 311.776C476.878 316.293 480.645 319.99 485.328 320.174C497.729 320.667 510.905 320.907 522.53 316.448C525.62 312.115 525.07 303.577 523.602 299.357C514.418 299.103 497.856 305.496 496.939 292.71V292.696ZM915.188 299.95C920.845 272.472 930.664 232.59 903.408 213.481C891.304 204.999 877.408 201.288 862.426 199.89C872.922 218.943 888.228 268.803 879.327 289.252L915.174 299.95H915.188ZM32.5434 400.546C26.9709 388.253 23.2323 378.092 25.9974 365.574C1.0269 328.147 6.10565 255.608 20.4249 212.945C1.7746 212.041 -14.9994 223.261 -23.3229 239.971C-41.3102 276.071 -34.4538 330.292 -19.2458 366.661C-8.32648 392.784 1.18208 404.286 32.5575 400.56L32.5434 400.546ZM621.03 248.96C624.232 246.336 619.774 237.981 615.499 237.755C609.814 237.459 603.141 242.469 604.905 248.467C609.758 248.354 616.6 251.501 621.016 248.96H621.03ZM244.215 260.053C242.691 256.737 244.341 251.995 247.699 252.206C251.649 252.446 255.106 254.591 258.872 253.716C260.227 253.392 260.043 250.654 259.451 249.864C253.399 241.791 228.837 254.733 220.147 258.134C224.45 268.154 226.143 278.47 227.13 289.281C236.159 287.601 244.624 285.146 252.51 280.404C253.906 276.537 254.541 272.783 255.345 268.337C251.17 266.291 246.585 265.176 244.243 260.067L244.215 260.053ZM656.567 273.503C653.999 284.214 635.998 274.547 629.212 271.484C628.436 276.156 627.322 280.305 623.851 281.73C621.001 282.902 615.697 283.918 613.905 280.898C610.322 274.886 622.708 267.505 617.221 264.216C614.54 262.608 608.46 261.168 605.314 262.565C601.984 264.033 588.864 276.184 585.281 271.484C581.994 267.166 591.658 257.866 593.647 251.077C587.623 252.348 583.391 256.087 578.58 259.658L564.105 270.426C561.368 272.458 560.466 275.775 560.959 278.823C562.779 290.127 636.83 306.301 681.791 285.357C697.62 277.99 666.019 268.747 659.402 261.563C653.167 254.803 646.071 247.267 635.871 250.979C633.388 251.882 633.162 258.712 636.224 259.46C643.024 261.112 658.5 265.388 656.567 273.488V273.503ZM391.442 260.406C384.289 253.773 371.254 250.993 365.032 261.535C369.547 266.855 390.863 267.872 391.442 260.406ZM524.35 286.388L523.715 261.493C519.046 260.533 514.715 260.914 509.847 261.253C508.916 269.861 508.761 277.708 509.382 286.373C514.39 287.559 519.003 287.305 524.35 286.373V286.388ZM426.387 370.26L604.552 370.373C658.556 370.401 711.262 370.613 764.688 363.556C794.483 359.619 821.175 346.593 850.011 339.55L917.022 315.206C902.915 310.69 888.327 304.664 873.528 302.617C846.879 319.51 828.059 317.817 802.51 325.579C796.698 327.343 791.126 325.649 786.329 324.76C764.152 332.833 762.374 343.177 740.775 334.3C735.161 332 729.151 331.548 728.657 323.038C728.05 312.863 717.314 319.863 712.024 311.071C709.908 307.557 709.231 302.533 710.74 298.609C718.612 278.005 742.849 275.888 738.349 270.694C737.347 269.537 700.442 267.406 690.834 264.654C696.745 269.692 699.355 275.492 698.805 282.125C698.255 288.758 693.769 294.375 687.025 297.565C661.984 309.42 633.769 311.367 605.991 308.107C589.372 306.16 573.967 302.97 559.478 295.391C552.382 291.68 548.389 286.458 548.009 279.063C547.628 271.668 549.8 266.432 557.305 261.154C549.885 259.856 543.917 261.253 536.737 261.239L538.415 309.434C538.782 320.018 533.464 328.387 523.024 330.73C505.276 334.71 464.646 341.173 463.419 313.724C462.671 297.085 461.867 281.25 462.079 264.301C446.546 263.468 432.298 262.692 416.638 264.64C428.15 269.029 439.013 274.448 445.911 284.877C450.355 291.595 447.167 300.514 441.482 305.75C436.685 310.153 430.732 313.202 424.27 315.403C385.898 328.5 338.313 333.637 300.264 317.817C288.809 313.047 283.222 299.908 290.107 289.549C295.806 280.968 305.075 277.694 313.144 271.611C298.289 274.462 285.508 280.446 271.626 285.061C253.455 291.115 251.141 302.25 222.573 302.603C216.042 302.688 210.074 308.361 204.233 310.774C210.314 316.857 215.421 325.875 211.188 333.369C204.233 345.675 192.51 353.268 181.52 361.524L295.834 367.338L369.152 369.258L426.401 370.288L426.387 370.26ZM214.588 291.031C213.46 280.404 212.134 272.995 209.75 263.652L176.3 276.565L178.459 302.533C191.452 300.26 203.641 297.974 214.588 291.031ZM409.584 288.349C401.275 298.906 386.49 271.442 378.294 281.081C382.907 285.569 388.649 293.825 383.471 299.174C381.242 301.474 378.167 301.432 375.514 300.275C367.092 296.619 364.539 288.335 364.567 279.952C362.112 276.212 356.314 270.595 351.87 269.438C340.626 266.503 331.245 274.025 322.85 279.896L303.678 293.303C301.379 294.912 299.615 297.523 300.194 300.162C300.603 301.982 302.423 304.706 305.301 305.708C332.909 315.333 362.31 315.94 391.117 310.153C399.864 308.403 433.44 302.25 434.132 293.133C434.696 285.71 414.663 277.214 407.003 271.767C405.126 270.426 403.701 267.491 401.642 269.241C392.175 277.327 415.425 280.94 409.584 288.363V288.349ZM753.388 310.958C755.941 314.952 749.254 321.401 751.878 324.28C761.88 322.559 769.499 319.567 778.612 314.331C770.331 303.633 761.697 292.682 749.325 286.077C743.724 283.085 725.652 294.531 724.806 298.581C729.884 299.103 733.778 295.801 737.474 297.861C744.486 301.756 729.856 314.867 738.335 315.714C741.918 316.067 749.564 304.96 753.402 310.972L753.388 310.958ZM187.657 340.82C183.269 336.587 176.413 333.821 180.42 328.542C184.652 322.954 197.518 331.506 199.465 328.204C202.907 322.389 188.419 315.192 183.185 315.262C172.068 315.403 162.08 318.353 150.751 319.115L151.104 359.365C158.976 357.869 164.746 357.544 170.925 355.216C169.218 352.435 167.977 350.417 167.892 348.371C167.427 337.25 180.321 351.461 187.657 340.82ZM900.121 363.782C913.622 359.096 914.61 343.375 916.387 330.433L893.674 338.111C851.154 352.478 809.649 366.986 765.534 378.092C762.939 388.423 760.032 398.386 759.524 410.1C774.986 406.515 788.882 402.409 803.639 397.286L900.121 363.796V363.782ZM746.122 411.652C747.35 399.967 749.607 390.399 752.16 379.701C687.251 383.991 623.372 385.967 558.138 385.699L445.248 385.247L322.766 382.284L281.755 381.056L253.54 379.701L150.78 372.885C146.434 372.602 139.691 373.308 136.982 376.102C135.882 384.655 136.757 395.169 141.102 402.437C143.232 405.528 149.961 405.782 153.615 405.866L256.404 408.054L355.228 409.027L483.015 410.298L601.759 411.37C650.176 411.808 696.858 413.177 746.122 411.681V411.652ZM156.789 507.577L153.982 467.341C152.853 451.196 153.361 435.277 151.062 419.414C141.412 418.455 131.692 415.957 127.812 407.249C123.933 398.542 123.806 388.507 122.226 377.993C97.6925 382.213 59.8699 393.687 38.2711 377.57C40.4719 389.608 45.6353 400.306 55.3131 407.588C86.6462 431.17 125.146 408.11 131.579 444.465L142.922 508.537C148.325 508.438 151.682 508.974 156.804 507.577H156.789ZM878.918 520.645C879.552 525.599 883.39 528.337 886.719 527.462C888.99 526.869 892.842 524.047 892.856 520.278L893.392 380.435L872.033 387.844L875.602 467.257C876.406 485.222 876.59 502.482 878.903 520.645H878.918ZM117.387 447.809C118.459 440.866 113.465 435.658 106.919 435.136L77.053 431.241C62.9877 429.406 50.6999 422.957 41.9109 412.894C28.1841 417.283 15.1628 415.505 1.958 411.511C-0.778886 416.423 -2.51412 422.759 -0.609591 428.433C2.55052 437.818 28.692 441.219 38.0312 442.094C64.4972 444.563 89.9756 447.922 117.373 447.809H117.387ZM190.648 566.695L188.786 489.964L187.304 420.05L164.436 419.231C165.804 466.114 170.206 511.26 174.593 557.451C175.228 564.099 175.002 570.929 178.6 576.066C180.518 578.804 185.936 577.195 187.713 575.685C189.491 574.175 190.732 570.788 190.634 566.709L190.648 566.695ZM227.187 493.379L216.168 420.656C209.806 421.249 204.741 419.753 199.761 421.602L202.16 502.92C209.101 496.752 217.41 494.833 227.201 493.379H227.187ZM742.229 573.328C743.809 548.758 743.639 525.444 744.02 501.24L745.205 425.13L721.25 425.963L722.718 470.235L724.114 533.671C724.481 550.028 723.621 566.244 727.063 581.994C727.923 585.959 735.316 584.647 737.531 583.024C739.858 581.302 741.932 577.901 742.229 573.328ZM53.6061 483.247L54.1422 458.239L22.5128 453.342L17.7586 480.452L53.6061 483.247ZM648.511 515.635L663.677 497.924C638.439 483.853 612.875 490.303 592.828 507.647C578.566 519.996 639.003 526.728 648.511 515.635ZM710.966 531.427L709.978 491.361C693.543 488.751 662.196 511.881 658.824 525.938C656.383 536.127 700.653 537.482 710.966 531.427ZM374.174 518.853C358.204 498.418 332.006 491.517 307.149 501C306.881 512.7 314.047 522.593 326.166 526.333C344.012 531.851 383.767 531.145 374.174 518.853ZM772.673 512.954C773.364 504.331 763.587 499.109 756.943 501.734L756.9 525.274C764.166 524.47 772.024 521.012 772.673 512.954ZM275.364 533.192C276.62 528.817 276.323 526.262 274.391 524.131C260.41 508.791 238.67 500.182 217.212 508.988L246.881 537.073C253.765 543.579 268.099 535.774 275.378 533.192H275.364ZM231.884 541.504C224.563 530.877 215.647 522.141 202.879 517.526C202.442 529.748 202.794 539.867 203.754 551.044C208.268 553.345 239.361 552.343 231.884 541.504ZM159.893 541.448C159.315 533.559 159.399 527.786 157.847 521.083C152.416 520.702 147.958 520.547 142.851 521.012C141.666 527.024 141.567 533.883 146.054 538.173C149.538 541.504 155.181 541.941 159.893 541.433V541.448Z" fill="#FAF0CA"/>
<path d="M125.176 130.54C128.689 137.272 121.846 142.056 116.091 142.719C111.449 143.256 107.866 141.929 106.78 137.554C105.947 134.167 107.654 130.639 111.858 128.818C115.667 127.167 122.552 125.516 125.176 130.54Z" fill="#FAF0CA"/>
<path d="M150.245 132.657C145.9 133.828 142.528 131.824 140.878 128.959C138.691 125.177 141.244 122.143 145.082 119.998C148.03 118.361 150.88 117.909 153.377 119.193C156.34 120.732 157.243 123.427 156.833 126.8C156.523 129.383 154.238 131.584 150.245 132.671V132.657Z" fill="#FAF0CA"/>
</g>
</g>
<defs>
<clipPath id="clip0_813_1766">
<rect width="205" height="205" fill="white"/>
</clipPath>
<clipPath id="clip1_813_1766">
<rect width="758" height="557" fill="white" transform="translate(-62 -74)"/>
</clipPath>
</defs>
</svg>
