<?xml version="1.0" encoding="UTF-8"?>
<svg id="Layer_2" data-name="Layer 2" xmlns="http://www.w3.org/2000/svg" viewBox="0 0 654.28 482.27">
  <defs>
    <style>
      .cls-1 {
        fill: #fd8331;
      }
    </style>
  </defs>
  <g id="Layer_1-2" data-name="Layer 1">
    <g>
      <path class="cls-1" d="M368.46,271.9c29.22,6.35,40.02-9.26,33.73-13.81-3.76-2.72-8.29-8.06-13.32-8.7-9.33,1.13-10.7,16.19-15.2,15.33-6.59-1.26-1.64-15.29,7.82-20.73-6.65-5.1-14.07-8.86-21.37-12.93-7.15,4.81-5.23,16.68-11.22,12.95-4.81-2.99,1.01-12.52,4.28-16.89-18.51-9.74-37.45-17.14-57.75-21.26-3.31-.67-5.07-3.32-4.92-6s2.95-6.05,6.64-5.55c38.08,5.19,82.33,31,113,53.89,7.85,5.86,16.09,10.67,25.86,12.13,17.86,2.66,30.77-12,26.25-17.41-3-3.59-6.5-9.97-11.43-11.06-4.36-.96-9.3,4.67-11.81,7.31-2.19,2.3-.78,5.19-2.02,7.17-1.09,1.73-4.48,1.11-5.55.08-5.95-5.75,5.02-18.1,12.36-21.99-7.52-7.1-15.31-12.86-23.44-18.45l-9,10.62c-.75.88-2.41.2-2.95-.3-4.23-3.94,2.1-10.55,5.64-14.48-20.97-13.33-43.55-23.37-67.93-27.55-3.59-.62-6-2.23-5.9-5.49s2.81-6.17,6.9-5.75c43.65,4.46,92.65,36.85,121.86,68.25,8.72,9.38,19.11,16.51,32.84,13.84,6.04-1.18,15.89-6.51,15.32-13.65-.6-7.52-8.85-12.76-12.8-18.43-8.42,2.85-12.31,8.63-14.76,15.95-.42,1.05-3.7.34-4.46-.41-5.56-5.52,5.76-19.27,14.05-22.44-10.17-10.79-20.29-21.05-31.92-30.14l-8.02,12.83c-8.03-3.9-.83-12.98,2.01-17.61-17.08-12.56-35.13-22.5-55.22-29.03-2.28-.74-5.74-2.09-5.54-4.86.89-12.05,25.52-.71,31.68,2.14,24.18,11.17,45.06,26.99,64.13,45.48,2.41,2.33,4.76,5.26,7.93,6.43,5.57,2.06,12.33-.33,16.55-4.12,8.77-7.87-4.06-21.11-9.93-27.15-5.48-.35-9.31,9.6-13.58,6.41s4.17-10.42,7.37-13.33c-10.83-10.68-22.06-19.88-34.39-28.36-4.22,3.13-3.12,8.95-7.78,8.48-2.33-.23-2.87-2.41-2.41-4.94.52-2.84,2.41-4.71,4.22-7.65-12.27-8.01-25.32-14.5-39.1-19.87-2.53-.99-4.48-.34-6.38,1.32-19.47,17.06-50.72,47.55-74.54,20.46-7.63,6.16-15.36,10.53-24.46,12.31-11.53,2.25-22.46-2.76-29.2-12.56-11.44,8.68-27.35,7.2-37.24-3.33-7.45,5.7-16.51,7.2-24.49,3.29-15.66-7.68-11.66-31.55-7.66-46.02-11.79-.05-22.44,2.65-33.1,6.19-4.75,1.58-9.4,2.5-14.43.94-25.18-7.81-48.78-17.69-72.42-29.5-21.49-10.74-41.9-21.84-61.74-35.05-3.28-2.18-4.82-6.18-3.2-8.93,1.8-3.06,6.11-4.47,9.47-2.27,22.28,14.61,44.86,27.32,69.12,38.65,21.39,9.99,42.3,19.03,64.94,25.2,15.25-5.48,30.03-8.8,46.36-7.9,13.79-29.46,36.35-53.99,71.79-39.01,17.94-14.45,39.09-14.98,56.14,1.36,16.53-7.58,40.2-.79,52.26,11.45,6.07-2.25,12.15-3.98,18.23-2.48,15.46,3.8,35.99,21.97,48.7,32.47,48.35-12.76,97.9-40.91,140.6-66.73,3.05-1.85,7.37.37,8.38,2.55,1.31,2.83.66,6.09-2.48,8.09-28.49,18.1-57.57,34.22-88.34,48.37-18.11,8.33-35.88,14.83-54.99,19.93-4.88,1.3-8.79-.24-12.55-3.27l-18.28-14.78c-7.22-5.84-15.21-12.17-24.86-13.95-14.07-2.59-45.73,26.29-55.15,38.99,6.41,1.54,21.7,8.31,16.82,15.57-3.19,4.73-12.71-7.16-21.72-7.99-3.22,5.28-7.63,12.08-6.24,18.76,1.27,6.12,9.83,8.19,15.43,7.29,7.5-1.2,13.6-5.03,19.3-9.63l24.33-19.64c2.71-2.18,6.97-4.96,10.68-3.71,39.68,13.37,84.11,44.79,107.6,79.02,5.96,8.69,6.09,19.7-.31,27.6-4.75,5.87-11.43,8.61-18.79,10.03,5.74,6.18,10.84,11.79,14.91,18.58,12.42-6.85,20.58-17.34,27.76-28.8,3.85-7.73,9.72-12.11,17.59-15.31l71.58-29.11c3.97-1.62,7.75-.82,9.12,2.78,1.62,4.28-.28,7.5-4.66,9.29l-71.68,29.24c-5.3,2.16-8.54,4.86-11.49,9.87-7.54,12.8-17.69,24.66-30.88,31.73-3.84,2.06-4.69,3.08-6.47,7.1-6.05,13.65-21.74,20.91-36.42,18.88-6.42-.89-11.47-3.16-17.53-5.77-6.91,14.09-22.52,22.36-38.29,20.58-7.33-.83-13.46-3.69-20.11-6.48-12.91,24.6-40.17,21.32-63.09,14.57-2.88,10.05-.09,19.75-8.58,20.39-10.28.78-3.19-14.94-3.94-23.57l-31.09-11.89c.96,10.83,3.39,20.82,5.29,31.43.62,3.44-.48,6.25-3.67,7.32-2.68.91-6.39-.61-7.45-4.13-3.88-12.82-5.43-25.6-7.67-39.1-1.89-1.9-5.72-5.49-8.82-4.45-10,3.36-19.29,6.89-30.08,8.38,2.9,15.53,7.19,30.14,12.79,44.75,2.09,5.45.51,9.65-3.87,13.13-6.93,5.49-15.43,12.25-23.53,5.41-16.86-14.23-33.98-27.42-52.77-39.06-11.41-7.07-28.1-18.07-40.49-11.23-2.77,1.53-4.78,3.79-5.56,6.24-2.69,8.41,9.69,17.57,16.12,23.03l72.89,61.83c3.41,2.89,6.25,5.84,8.17,9.92,7.87,16.76,20.49,30,36.26,39.89,3.27,2.05,5.42,4.73,5.04,9.03-1.41,16.08-2.6,31.89-5.42,47.67-.71,3.98-3.35,6.81-6.96,6.06-3.17-.66-5.71-3.91-5.25-7.72,1.81-14.99,4.03-29.58,4.37-44.66-14.63-10.73-28.28-22.54-36.32-38.47-3.07-6.08-5.87-10.08-11.1-14.53l-37.16-31.67c-15.33-13.06-30.58-24.98-45.1-38.73-6.61-6.26-9.97-15.99-7.53-24.64,3.43-12.18,15.87-19.25,28.44-18.21,10.14.84,19.05,5.12,27.74,10.21,22.27,13.04,42.64,27.81,62.42,44.69,1.91.22,7.72-2.53,7.03-4.95-4.56-15.82-10.17-30.46-12.26-47.13-23.2.67-45.2-2.48-67.13-9.06-26.51-7.95-47.35-25.8-58.59-50.94-37.96-16.98-75.54-31.71-113.8-46.42-4.22-1.62-6.35-4.42-5.2-8.85.79-3.05,4.61-5.28,8.74-3.61l111.6,45.23c16.02,6.49,7.86,14.55,28.52,33.52,11.28,10.35,24.53,16.98,39.48,20.82,14.93,3.84,29.82,5.78,45.35,6.32,16.86.59,32.95-2.21,48.31-8.35,5.85-2.34,10.22-.81,15.42,1.85,22.38,11.48,46.14,19.69,70.72,25.03ZM264.47,90.96c-2.17,4.97-5.19,11.43-2.8,16.89,2.9,6.62,11.06,8.37,16.81,7.03,7.84-1.83,9.92-6.88,12.74-13.71,11.13-26.94,29.79-49.65,51.88-68.42-12.15-8.4-26.84-6.61-38.03,2.84-15.73,13.29-28.64,29.69-38.17,48.57,7.97-1.64,22.94,5.16,19.17,11.96-2.04,3.69-14.51-4.53-21.6-5.16ZM230.77,93.01c-1.01,5.11-1.67,10.51,1.5,15.41,2.89,4.46,13.43,4.32,14.89-1.37,1.93-7.51,2.69-14.37,5.84-21.69,8.15-18.94,19.62-35.7,34.05-50.97-5.82-1.43-11.86-1.91-17.55-.26-18.13,5.25-33.35,33.5-37.53,50.82,4.56.38,12.57,1.09,12.68,5.94.04,1.59-.45,4.65-2.56,4.25l-11.34-2.13ZM317.43,122.25c9.73-1.56,16.81-7.08,23.08-13.26,6.66-24.83,32.56-51.51,53.81-65.37-12.93-8.38-29.73-11.64-41.9-1.8-17.79,14.37-33.28,31.51-44.06,51.88-3.21,6.06-7.19,12.81-6.98,19.66.21,6.93,9.56,9.93,16.05,8.89Z"/>
      <path class="cls-1" d="M547,271.3c-10.42-10.92-45.47,6.09-57.47,13.49-10.93,6.74-20.15,14.98-30.01,23.15-3.2,2.65-7.46,2.36-11.51,2.47-7.6.2-14.75.76-22.22,1.4-30.69,2.63-52.9,18.77-69.48,43.77-1.41,2.13-4.98,2-6.85.83-1.6-1.01-2.7-4.5-1.21-7.22,18.8-34.22,54.34-51.67,93.77-51.04l-8.43-6.32c-1.75-1.31-1.99-3.68-1.04-5.5,3.44-6.58,18.86,5.59,23.42,8.21,9.99-7.85,19.24-15.53,30.07-21.96,17.07-10.14,54.74-27.23,70.64-10.01,7.79,8.44,7.21,20.57-1.54,28.06l-27.45,23.48c-24.65,21.08-45.24,44.79-63.3,71.62-9.76,14.5-21.73,26.06-35.8,36.64l4.45,49.94c.37,4.13-2.18,6.86-5.54,7.09s-6.2-1.97-6.6-5.98l-5.1-50.99c-.43-4.25.77-6.98,3.97-9.36,13.61-10.14,25.42-21.73,35.12-35.95,17.26-25.32,36.16-48.41,59.5-68.36l32.33-27.64c1.46-1.25,2.58-2.85,2.71-4.29.17-2.02-.87-3.9-2.44-5.54Z"/>
      <path class="cls-1" d="M331.22,104.04c-2.37,4.02-9.68-2.92-17.87-6.29-2.38-.98-2.1-6.64.81-7,8.78-1.08,20.69,7.13,17.06,13.29Z"/>
    </g>
  </g>
</svg>