<svg width="73" height="57" viewBox="0 0 73 57" fill="none" xmlns="http://www.w3.org/2000/svg">
<path d="M65.9986 27.5C65.9986 42.6878 53.6865 55 38.4986 55C23.3108 55 10.9986 42.6878 10.9986 27.5C10.9986 12.3122 23.3108 0 38.4986 0C53.6865 0 65.9986 12.3122 65.9986 27.5Z" fill="#FAF0CA"/>
<path d="M41.109 33.445C44.3691 34.156 45.5741 32.4081 44.8723 31.8987C44.4528 31.5941 43.9474 30.9962 43.3862 30.9245C42.3452 31.051 42.1924 32.7373 41.6903 32.641C40.955 32.4999 41.5073 30.929 42.5628 30.3199C41.8208 29.7488 40.9929 29.3278 40.1785 28.8721C39.3807 29.4107 39.5949 30.7398 38.9266 30.3221C38.3899 29.9873 39.0393 28.9202 39.4041 28.4309C37.3389 27.3403 35.2257 26.5118 32.9608 26.0504C32.5915 25.9754 32.3951 25.6787 32.4119 25.3786C32.4286 25.0785 32.741 24.7012 33.1527 24.7572C37.4014 25.3383 42.3385 28.2283 45.7605 30.7913C46.6363 31.4474 47.5557 31.986 48.6457 32.1495C50.6384 32.4473 52.0788 30.8058 51.5745 30.2001C51.2398 29.7981 50.8493 29.0837 50.2993 28.9617C49.8128 28.8542 49.2616 29.4846 48.9816 29.7802C48.7372 30.0377 48.8945 30.3613 48.7562 30.583C48.6346 30.7767 48.2563 30.7073 48.137 30.592C47.4731 29.9481 48.6971 28.5653 49.516 28.1297C48.677 27.3347 47.8078 26.6898 46.9007 26.0639L45.8966 27.253C45.8129 27.3515 45.6277 27.2754 45.5674 27.2194C45.0955 26.7783 45.8017 26.0381 46.1967 25.5981C43.857 24.1055 41.3377 22.9813 38.6176 22.5133C38.217 22.4439 37.9481 22.2636 37.9593 21.8986C37.9704 21.5336 38.2728 21.2077 38.7291 21.2547C43.5993 21.7541 49.0664 25.3809 52.3254 28.8967C53.2983 29.947 54.4576 30.7454 55.9895 30.4464C56.6634 30.3143 57.7624 29.7175 57.6988 28.918C57.6318 28.076 56.7114 27.4893 56.2706 26.8544C55.3312 27.1735 54.8972 27.8207 54.6238 28.6403C54.577 28.7579 54.211 28.6784 54.1262 28.5944C53.5059 27.9763 54.7689 26.4367 55.6938 26.0818C54.5591 24.8736 53.43 23.7248 52.1324 22.707L51.2376 24.1436C50.3416 23.7069 51.145 22.6902 51.4618 22.1718C49.5562 20.7654 47.5423 19.6525 45.3008 18.9213C45.0464 18.8384 44.6603 18.6873 44.6827 18.3771C44.782 17.0279 47.53 18.2976 48.2173 18.6167C50.9151 19.8674 53.2448 21.6388 55.3725 23.7091C55.6414 23.97 55.9036 24.2981 56.2573 24.4291C56.8787 24.6598 57.6329 24.3922 58.1038 23.9678C59.0823 23.0866 57.6508 21.6041 56.9959 20.9278C56.3844 20.8886 55.9571 22.0027 55.4807 21.6455C55.0043 21.2883 55.946 20.4788 56.303 20.153C55.0947 18.9571 53.8417 17.927 52.466 16.9775C51.9952 17.3279 52.1179 17.9796 51.598 17.927C51.338 17.9012 51.2777 17.6571 51.3291 17.3739C51.3871 17.0559 51.598 16.8465 51.7999 16.5173C50.4309 15.6204 48.9749 14.8937 47.4374 14.2924C47.1551 14.1816 46.9376 14.2544 46.7256 14.4402C44.5532 16.3504 41.0666 19.7644 38.4089 16.7311C37.5576 17.4209 36.6952 17.9102 35.6798 18.1095C34.3934 18.3614 33.1739 17.8005 32.4219 16.7031C31.1455 17.6751 29.3704 17.5093 28.2669 16.3303C27.4357 16.9685 26.4249 17.1365 25.5345 16.6987C23.7873 15.8387 24.2336 13.166 24.6799 11.5458C23.3644 11.5402 22.1762 11.8425 20.9868 12.2389C20.4568 12.4158 19.938 12.5188 19.3768 12.3441C16.5674 11.4696 13.9343 10.3634 11.2967 9.04101C8.89897 7.83845 6.62176 6.59558 4.40815 5.11645C4.04219 4.87235 3.87037 4.42447 4.05112 4.11655C4.25195 3.77392 4.73283 3.61604 5.10772 3.86238C7.59356 5.49827 10.1129 6.92141 12.8196 8.19003C15.2062 9.30862 17.5392 10.3208 20.0652 11.0117C21.7667 10.3981 23.4157 10.0264 25.2377 10.1271C26.7763 6.82847 29.2934 4.08184 33.2475 5.75916C35.2492 4.14118 37.6089 4.08184 39.5113 5.91144C41.3556 5.0627 43.9965 5.82298 45.3421 7.1935C46.0193 6.94156 46.6977 6.74786 47.376 6.91581C49.101 7.3413 51.3915 9.3758 52.8096 10.5515C58.2042 9.12275 63.7326 5.97078 68.4968 3.0797C68.8371 2.87256 69.3191 3.12113 69.4318 3.36523C69.578 3.6821 69.5054 4.04713 69.1551 4.27107C65.9764 6.29773 62.7318 8.1027 59.2987 9.68708C57.2781 10.6198 55.2955 11.3476 53.1633 11.9187C52.6189 12.0642 52.1826 11.8918 51.7631 11.5525L49.7235 9.89758C48.918 9.24368 48.0265 8.5349 46.9498 8.3356C45.38 8.04559 41.8476 11.2793 40.7966 12.7013C41.5118 12.8738 43.2177 13.6318 42.6732 14.4447C42.3173 14.9743 41.2551 13.643 40.2499 13.5501C39.8906 14.1413 39.3986 14.9027 39.5537 15.6506C39.6954 16.3359 40.6504 16.5677 41.2752 16.4669C42.112 16.3325 42.7926 15.9037 43.4286 15.3886L46.1432 13.1895C46.4455 12.9454 46.9208 12.6341 47.3348 12.7741C51.762 14.2712 56.7192 17.7893 59.34 21.622C60.005 22.595 60.0195 23.8278 59.3054 24.7124C58.7755 25.3697 58.0301 25.6765 57.209 25.8355C57.8494 26.5274 58.4184 27.1556 58.8725 27.9159C60.2583 27.1489 61.1687 25.9743 61.9698 24.6911C62.3993 23.8256 63.0543 23.3352 63.9324 22.9769L71.9188 19.7174C72.3617 19.536 72.7834 19.6256 72.9363 20.0287C73.117 20.5079 72.9051 20.8685 72.4164 21.0689L64.4188 24.3429C63.8275 24.5848 63.466 24.8871 63.1368 25.448C62.2956 26.8813 61.1631 28.2092 59.6915 29.0009C59.263 29.2315 59.1682 29.3457 58.9696 29.7959C58.2946 31.3243 56.544 32.1372 54.9061 31.9099C54.1898 31.8102 53.6264 31.556 52.9502 31.2638C52.1793 32.8415 50.4376 33.7675 48.6781 33.5681C47.8603 33.4752 47.1763 33.155 46.4344 32.8426C44.994 35.597 41.9525 35.2298 39.3952 34.474C39.0739 35.5993 39.3852 36.6854 38.4379 36.7571C37.291 36.8444 38.082 35.0842 37.9983 34.1179L34.5295 32.7866C34.6366 33.9992 34.9078 35.1178 35.1197 36.3058C35.1889 36.691 35.0662 37.0056 34.7103 37.1254C34.4113 37.2273 33.9973 37.0571 33.8791 36.663C33.4461 35.2275 33.2732 33.7966 33.0233 32.285C32.8124 32.0722 32.3851 31.6702 32.0392 31.7867C30.9235 32.1629 29.887 32.5582 28.6831 32.725C29.0067 34.4639 29.4853 36.0998 30.1101 37.7357C30.3433 38.3459 30.167 38.8162 29.6783 39.2059C28.9051 39.8206 27.9568 40.5775 27.053 39.8116C25.1719 38.2183 23.2618 36.7414 21.1653 35.4381C19.8923 34.6464 18.0301 33.4147 16.6477 34.1806C16.3387 34.3519 16.1144 34.605 16.0274 34.8793C15.7272 35.821 17.1085 36.8466 17.8259 37.458L25.9585 44.3811C26.3389 44.7047 26.6558 45.035 26.87 45.4919C27.7481 47.3685 29.1562 48.851 30.9157 49.9584C31.2805 50.1879 31.5204 50.488 31.478 50.9695C31.3207 52.77 31.1879 54.5402 30.8733 56.3071C30.7941 56.7527 30.4995 57.0696 30.0967 56.9856C29.743 56.9117 29.4596 56.5478 29.511 56.1212C29.7129 54.4428 29.9606 52.8092 29.9985 51.1206C28.3662 49.9192 26.8433 48.5968 25.9462 46.8131C25.6037 46.1324 25.2913 45.6845 24.7077 45.1862L20.5617 41.6401C18.8513 40.1778 17.1498 38.8431 15.5298 37.3035C14.7923 36.6025 14.4174 35.5131 14.6896 34.5445C15.0723 33.1807 16.4603 32.3891 17.8627 32.5055C18.9941 32.5996 19.9882 33.0788 20.9578 33.6488C23.4425 35.1089 25.7153 36.7627 27.9222 38.6527C28.1353 38.6774 28.7835 38.3694 28.7065 38.0985C28.1978 36.3271 27.5718 34.6878 27.3386 32.8213C24.7501 32.8963 22.2955 32.5436 19.8487 31.8068C16.8909 30.9167 14.5658 28.918 13.3117 26.1031C9.07637 24.2018 4.88345 22.5525 0.614671 20.9054C0.143833 20.724 -0.0938174 20.4105 0.0344915 19.9145C0.122634 19.573 0.548843 19.3233 1.00964 19.5103L13.4612 24.5747C15.2486 25.3014 14.3382 26.2038 16.6432 28.3279C17.9018 29.4868 19.3801 30.2292 21.0482 30.6591C22.7139 31.0891 24.3753 31.3063 26.108 31.3668C27.9891 31.4329 29.7843 31.1193 31.4981 30.4319C32.1508 30.1698 32.6384 30.3412 33.2185 30.639C35.7155 31.9244 38.3665 32.8437 41.109 33.4416V33.445ZM29.5065 13.185C29.2644 13.7415 28.9274 14.4649 29.1941 15.0762C29.5177 15.8175 30.4281 16.0134 31.0696 15.8634C31.9444 15.6585 32.1764 15.093 32.4911 14.3283C33.7329 11.3118 35.8148 8.76892 38.2795 6.66724C36.9239 5.72668 35.2849 5.92711 34.0364 6.98523C32.2813 8.47332 30.8409 10.3096 29.7776 12.4236C30.6669 12.24 32.3371 13.0014 31.9165 13.7628C31.6889 14.176 30.2976 13.2556 29.5065 13.185ZM25.7465 13.4146C25.6338 13.9867 25.5602 14.5914 25.9139 15.14C26.2363 15.6394 27.4123 15.6238 27.5752 14.9866C27.7905 14.1457 27.8753 13.3776 28.2268 12.558C29.1361 10.4373 30.4158 8.56066 32.0258 6.85087C31.3765 6.69075 30.7026 6.63701 30.0677 6.82176C28.0449 7.4096 26.3468 10.5728 25.8804 12.5121C26.3892 12.5546 27.2829 12.6341 27.2951 13.1772C27.2996 13.3552 27.2449 13.6979 27.0095 13.6531L25.7443 13.4146H25.7465ZM35.4154 16.6886C36.501 16.5139 37.291 15.8958 37.9905 15.2039C38.7336 12.4236 41.6233 9.43627 43.9943 7.88436C42.5516 6.94604 40.6772 6.58102 39.3194 7.68281C37.3345 9.29182 35.6062 11.211 34.4034 13.4918C34.0453 14.1704 33.6012 14.9262 33.6247 15.6932C33.6481 16.4691 34.6913 16.805 35.4154 16.6886Z" fill="#FD8331"/>
<path d="M61.0291 33.3776C59.8665 32.1549 55.9559 34.0595 54.617 34.8881C53.3975 35.6428 52.3688 36.5654 51.2687 37.4802C50.9117 37.7769 50.4364 37.7444 49.9845 37.7568C49.1365 37.7791 48.3388 37.8419 47.5053 37.9135C44.0812 38.208 41.6031 40.0152 39.7532 42.8145C39.5959 43.053 39.1976 43.0384 38.989 42.9074C38.8104 42.7943 38.6877 42.4035 38.854 42.099C40.9515 38.2673 44.9168 36.3135 49.3162 36.384L48.3756 35.6763C48.1803 35.5297 48.1536 35.2643 48.2596 35.0605C48.6434 34.3237 50.3638 35.6864 50.8726 35.9798C51.9872 35.1008 53.0193 34.2409 54.2276 33.5209C56.1322 32.3855 60.3351 30.472 62.1091 32.4001C62.9783 33.3451 62.9136 34.7033 61.9373 35.542L58.8746 38.171C56.1243 40.5314 53.8271 43.1862 51.812 46.1904C50.7231 47.8139 49.3876 49.1083 47.8177 50.293L48.3142 55.8848C48.3555 56.3472 48.071 56.6529 47.6961 56.6786C47.3212 56.7044 47.0044 56.4581 46.9597 56.0091L46.3907 50.2997C46.3427 49.8238 46.4766 49.5181 46.8337 49.2516C48.3522 48.1163 49.6698 46.8185 50.7521 45.2263C52.6779 42.3912 54.7866 39.8058 57.3907 37.572L60.9978 34.4771C61.1607 34.3372 61.2857 34.158 61.3002 33.9968C61.3192 33.7706 61.2031 33.5601 61.028 33.3765L61.0291 33.3776Z" fill="#FD8331"/>
<path d="M36.9539 14.6494C36.6894 15.0995 35.8738 14.3225 34.9601 13.9451C34.6945 13.8354 34.7258 13.2016 35.0504 13.1613C36.03 13.0404 37.3589 13.9597 36.9539 14.6494Z" fill="#FD8331"/>
</svg>
