<?xml version="1.0" encoding="UTF-8"?>
<svg id="Layer_2" data-name="Layer 2" xmlns="http://www.w3.org/2000/svg" viewBox="0 0 912.64 534.89">
  <g id="Layer_1-2" data-name="Layer 1">
    <g>
      <path d="M193.43,330.65c-76.26-37.33,207.06,50.94,209.6,59.01,0,0,8.56,2.36,8.56,2.36-3.53-18.9,25.03,4.08,36.04-.95,5.05,24.87-14.83,7.4-10.23,19.02,7.15,29.66,2.81,56.53,3.57,85.3,1.01,5.39-1.21,17.77,2.49,22.4,12.13,3.04,24.44-1.53,20.91-15.72,1.16-12.78,1-33.21.85-45.91.99-12.31-1.88-36.29-1.37-48.08-3.94,3.65-3.48-1.54-9.72-.56-12.56-23.12,12.15-46.39-24.61-51.17-37.41-11.21-76.76-15.68-114.43-26.16-35.81-7.72-69.98-22.08-105.38-27.57-41.71-28.07,101.39,18.2,112.81,20.21,41.66,10.4,85.04,15.81,125.58,30.32,35.88-3.06,78.45-26.77,117.48-35.77,39.87-14.84,80.69-26.37,122.03-36.2,26.27-18.25,56.09-10.34,10.25,6.38-46.1,18.35-96.24,26.45-143.14,43.86-31.16,11.18-56.47,19.54-90.26,29.76-8.42,6.2-3.14,21.84-4.24,29.14.1,3.23,10.56-1.08,11.81,6.56,17.22-7.87,42.48-16,62.6-23.65,63.35-22.88,124.88-43.46,189.03-61.8,13.04.57,8.64-2.32,4.08-12.23-4.92-14.08.38-24.84-.26-40.04,4.95-1.25-.24-9.53,5.47-13.99,2.77-3.48-.4-8.44,2.85-11.17,9.8-10.5,26.26-8.94,39.75-13.76,24.92-5.4,50.86-8.88,76.16-9.7,4.04-2.8,8.44-2.09,10.19,3.21,5.25-2.84,11.54-5.23,16.95-7.38-28.03-8.54-62.97-20.76-95.09-27.99-35.66-8.93-72.71-19.95-109.22-27.38-18.9-4.61-38.16-9.76-56.77-13.26-10.08-10.32,17.71-4.44,18.87-3.98,22.41,4.92,46.62,10.61,69.12,15.13-1.99-9.03,2.77-17.22,3.32-26.53,2.01-4.75,3.68-11.84,7.12-16.05-4.37-4.62-19.28-3.66-18.64-13.8-4.54-11.92,3.14-22.09,5.17-33.19.73-25.17,31.5-26.89,52.37-25.21,12.7,1.64,34.16,2.04,42.97,11.61-17.87,6.67-42.62-9.92-63.13-3.18-15.02.35-15.25,15.42-18.47,24.54-8.84,23.11.77,28.3,22.32,30.36,20.12,5.7,45.35,10.43,66.35,12.21,4.83.42,12.81,2.51,17.65,2.91,2.56-1.16-.37-3.84,2.21-5.85-1.91-51.79.56-26.14-28.34-54.22,7.99-12.08,44.5,10.09,42.31,24.83.52,28.96,6.71,45.28-27.18,46.18-2.59,9.54-4.37,25.33-5.74,37.23,2.4,7.97-10.44,5.99-10.08,10.73,25.1,6.85,50.5,13.35,74.79,22.45,9.52,2.68,14.06,5.57,24.06.26,13.06,5.67,15.83,18.08,17.66,30.95,2.22,23.25-22.91,29.24-36.24,37.42,1.6,22.63,1.8,45.94-.07,68.05.56,21.35,9.87,51.56-11.5,64.99-18.52,4.2-18.44.88-23.27-14.48-.11-7.86.95-47.37-3.02-22.78-3.19,11.72-4.25,17.8-.06,27.38-7.84,5.32-7.47,10.56-8.26,19.37-4.8,4.16-2.28,5.42-.2,13.17,1.39,12.46,4.06,25.82,6.17,38.32,7.14,17.23-15.12,46.19-28.65,30.12-7.96-18.71-9.31-36.76-10.11-57.57,3.79-12.95-14.2,1.27-20.91,1.85-32,9.32-16.43,11.77-23.65,38.34,1.13,5.82-3.27,11.5-4.51,16.89-.68,8.4,1.08,17.5-.38,25.72-19.81,25.07-37.77-13.85-33.94-33.4-8.91,6.5-16.39-1.93-18.69-11.24-1.04-11.88-.23-24.92.18-37.66-7.94-.56-16.14-3.05-23.76-3.17-1.86,15.08-3.84,38.43-10.93,52.63-12.06,18.61-34.53,19.16-36.61-5.25,3.47-.64,3.94-28.57,7.19-37.84.64-2.38,2.35-4.11.45-6.72,2-2.98,3.87-4.15,1.43-7.07,9.57-6.06-9-1.56-9.86-6.51-5.17-6.18-4.73-15.12-7.78-18.5-3.42-20.88,18.83-32.55,37.84-34.15,14.62-6.19,30.42-8.73,45.62-11.98,34.77-9.82,27.78,3.28,34.29-33.03-18.65,8.67-32.37,11.66-52.96,16.25-67.97,21.01-134.96,45.89-201.71,68.48-2.03,1.05-4.36.82-6.56.47-.4.37,1.41,14.8,1.01,15.65,2.5,30.36,1.51,63.97.52,94.54-3.9,25.92-10.39,19.65-31.15,21.47-8.13.25-3.65-4.76-7.84-8.1.05-2.09-2-3.89-1.5-5.91-2.04-15.48-.94-35.26-2.81-49.88-3.32-2.17-4.08-5.77-3.35-9.96.31-18.1-3.53-39.05-4.52-57.54-28.93-1.83-51.28-19.79-78.65-26.3-49.16-14.15-99.71-33.45-150.3-46.55ZM774.36,161.54c-14.97-.31,13.44-55.04-8.89-45.12-.54.16-2.24.14-2.48-.35-3.54-5.94-4.76.81-11.15-2.05-5.25-1.33-2.27,5.38-3.45,9.09-1.91,10.56,2.15,28.66-13.4,28.62-8.09-12.54,13.67-40.38-5.31-43.67-9.12-5.41-9.07,19.45-12.38,24.72,1.02,6.04-4.47,12.86-7.02,16.98,20.07,4.54,40.56,10,60.61,14.96,33,12.85,11.21-5.06,23.03-23.69,4.05-22.94,17.37-17.81-8.88-22.63-2.62,12.95,5.63,39.24-10.67,43.14ZM877.37,251.49c21.95-4.4,25.05-25.77,12.5-41.59-7.66,2.69-18.23,7.2-26.5,8.94,8.96,10.16-3.27,42.13,14,32.65ZM763.72,289.71c1.85-4.15,6.93-3.01,7.16,1.6,12.29-2.68,30.63-7.5,43.92-9.38,11.8-2.41,24.89-3.34,36.25-5.99.85-5.4-.2-10.34.46-16.08,5.91-41.52-7.92-44.37-44.86-36.53-20.96,4.28-43.93,5.88-61.8,17.44-3.5,17.6-7.99,36.14-2.66,52.9,6.01-1.81,17.69,5.26,21.54-3.95ZM866.18,271.48c.31-1.06,1.25-2.77.1-3.75.18-1,3.4-5.22-.13-2.97.33,3.54-2.32,6.2-.66,10.21,1.45-1,1.3-2.01.69-3.49ZM868.37,377.58c4.88-17.72-1.5-36.6-.14-55.15-1.82-9.73-.2-8.34-1.68-18.62-1.52-7.61,1.86-13.3-1.25-15.74,6.03-14.53-6.68,1.93-15.04-.72-2.05,9.65-3.82,20.18-4.94,29.97-1.83,14.87,7.03,29.44,4.66,46.41-1,16.28.9,26.74,18.39,13.86ZM813.53,385.97c23.33-6.15,17.36-54.33,24.16-74.91,5.7-21.88,5.04-30.24-15.07-10.29.23,28.26-10.28,56.9-9.09,85.2ZM769.21,300.54c-1.84,7.18,23.13-3.17,25.86-4.39-9.06.58-17.03,3.38-25.86,4.39ZM762.34,356.64c57.51.07,38.43,34.09,51.9-49.25,3.4-11.04-15.98.95-23.34.08-5.29-1.01-8.26,4.24-12.08,3.45-19.97-.98-13.12,31-16.48,45.72ZM737.37,411.03c6.05-1.65,13.98-5.61,10.21-13.27,3.98-16.12,1.5-28.33,5.01-41.96-2.07-11.36,18.54-65.61-4.32-49.87-3.55,20.17-6.29,39.42-7.05,59.09.08,15.2-5.7,30.58-3.85,46.01ZM685.24,387.09c13.04,1.11,27.29,5.58,38.98,5.3,1.68-10.07-1.72-6.92,1.56-14.6-2.44-2.65.13-4.27,2-6-1.13-1.49-3.45-4.03-.13-5.86-1.08-3.32,2.03-13.84-1.97-12.8-28.82,6.59-55.72,14.47-84.1,23.28,14.08,5.68,28.43,8.7,43.65,10.68ZM798.56,391.76c7.34-1.55,5.33-14.13,6.1-19.75-12.38,2.38-25.93-4.4-38.54-6.78-12.76-2.26-3.02,29.6-8.74,39.29,14.04-3.1,27.57-8.32,41.18-12.76ZM722.22,414.63c-1.53-12.41-.17-9.9-13.71-10.71-2.66-1.01-7.5-1.81-10.18-.6-18.62-3.32-32.59-5.32-51.13-8.94-6.67.34-11.61-4.7-18.11-6.9.79,7,5.56,27.65,15.56,20.75,10.61,9.52,32.86,5.75,47.75,9.31,8.07.65,37.77,11.87,29.82-2.92ZM735.04,421.87c.68,24.73,46.5-2.92,59.13-7.91,11.68-.73,45.52-25.44,18.95-17.01-12.75,4.16-25.06,7.04-36.66,12.51-10.06,4.02-36.88,6.21-41.42,12.41ZM825.23,471.52c-4.22-10.81-3.81-26.21-7.43-38.41-.12-3.76-4.2-8.13-1.41-17.77,0,0-6.44,2.84-6.44,2.84-5.86,4.2.33,17.19.79,23.96.33,5.08.09,10.49,3.04,15.04,3.18,6.94,4.32,33.74,11.45,14.32ZM649.93,472.98c4.82-15.52,7.65-23.13,8.57-41.3,3.53-8.21,2.94-7.02-8.85-9.42-1.76-.77-3.06.79-3.35,2.25-2.18,13.85-6.84,27.87-7.51,41.79-1.3,7.38,7.4,23.29,11.13,6.69ZM712.58,463.45c.64-7.54-4.47-18.92,2.74-24.44-.17-.31-1.74-.53-2.37-.53-13.32-13.94-1.01,41.47-.37,24.97ZM735.59,484.61c-5.28-44.85,23.9-44.72-8.96-41.73-5.45-5.26,2.53,34.61.9,43.97,4.61,23.06,9.94,19.32,8.07-2.24Z"/>
      <path d="M118.91,430.8c-4.74,1.33-8.33-4.28-13.63-3.69-.83,19.33-1.87,40.92-11.45,58.58-9.6,12.85-25.02,30.22-34.43,6.86-1.11-15.9-.27-33.43,2.45-49.59,14.64-56.98,6.36,26.99,10.17,41.9,7.12,12.19,20.58-15.5,20.29-22.29.2-8.61,8.51-37.61,1.5-39.68-52.53-16.27-29.48-17.43-31.43-64.38-1.64-44.18-.03,20.22-12.72,31.74-57.39,51.58-25.34-71.37-28.76-96.28-1.08-49.38,1.97-18.99-18.52-48-5.22-16.34-1.82-40.12,9.39-53.48,15.8.21,30.31-8.85,45.77-11.58,33.55-7.88,67.23-20.78,100.5-30.24,10.86-1.82,7.46-2.89,4.16-8.97-3.58-7.2-5.08-16.09-5.78-23.69-40.83,6.99-22.07,2.14-21.98,34.16-4.36,10.99-13.64-4.38-14.44-10.01-.08-5.39.42-11.53-1.84-16.63-5.04,4.51-7.9-1.33-18.13,4.63.73,12.01,3.76,20.17,8.3,29.76,3.56,8.15-7.58,7.85-12.13,5.12-5.6-10.3-6.46-22.64-5.28-34.37-24.51,4.99-30.47-18.28-30.5-34.77-1.17-6.5-3.76-16.9-.96-23.06,1.86-3.51,2.29-8.68,6.55-10.13,5.51-12.7,131.24-38.92,97.2-16.85-23.32,1.99-96.57,3.99-88.14,38.57,2.33,12.29-.35,29.33,14.33,34.32,22.14-1.52,43.35-8.28,65.35-12.36,44.68-7.36,26.14-26.64,11.68-53.57-2.33-14.83,18.76-2.64,21.75,4.23,9.22,11.33,11.92,26.94,7.55,40.72-2.25,3.18-10.9,5.39-5.97,9.4,9.34,8.09.57,38.68,7.76,34.22,63.51-14.43,128.67-25.15,192.62-37.69,9.21-18.62,7.88-40.96,13.4-60.63,12.76-30.75,51.55-42.82,79.27-23.27,34.69,18.8,24.4,83.88,39.95,83.19,12.4,6.26,39.94,3.94,46.65,14.61-11.78,5.74-30.9-3.24-44.11-6.03,0,0-8.02-1.66-8.02-1.66.26,8,.04,20.34-.71,28.35.12,15.94-13.79,42.67-32.1,31.94-12.2,15.56-25.46,18.02-41.09,10.56-5.75-4.47-9.31,3.63-15.56,3.29-13.22,1.07-27.29-6.5-31.2-18.21-43.58,6.69-33.79-31.1-11.47-51.99-26.04,2.17-56.71,10.24-83.27,14.88-77.23,13.94-153.59,30.9-227.26,58.31-18.24,5.87-35.84,8.11-53.43,17.04,21.25,2.81,10.94,15.31,34.67,2.02,28.96-3.92,53.08,6.5,79,18.45,14.34,2.11,12.83,17.28,23.12,21.25,19.64,13.55,43.04,56.31,7.27,60.35-5.94-1.8-4.3.91-3.04,5.07,5.58,22.12,8.7,44.17,9.67,66.85,2.22,7.98-2.83,29.68,9.65,21.39,8.59-4.15,86.27-18.87,46.48-21.99-6.12-5.23-18.65-5.97-25.51-9.46-7.82-2.59-5.78-4.8-12.5-6.33-4.86-6-16.38-6.38-19.01-15.41,15.18-13.32,31.38,7.65,47.19,12.15,23.51,4.09,78.21,26.36,39.91,51.19-3.41,30.31,34.65,68.31,2.86,90.98-7.72,4.4-20.6,2.05-20.27-9.86-4.68-9.01-6.32-15.97-6.91-26.61-4.59-2.03-2.39-14.48-5.03-19.51-2.42-6.13-4.02-14.54-5.89-22.84-6.65.51-16.6,3.01-23.1,7.33.76,19.41,10.27,56.14-12.86,63.77-5.28-3.19-3.23,11.35-4.74,15.38-1.41,12.06-9.08,22.22-20.34,17.69-5.54,1.36-8.27.22-13.53-1.83-7.05-3.14-6.13-13.4-8.05-20.01-.33-21.21,2.41-40.79,2.46-62.05,1.35-5.74-3.45-4.24-6.86-4.19-4.55-4.76-12.16-3.27-16.96-7.05ZM453.15,159.09c-14.65,14.33,11.57,15.3,20.24,7.65,6.44-8.65,10.98-14.89,14.41-24.54.78-3.59,1.46-17.93,7.96-10.17,4.66,11.76-13.09,40.04,8.15,19.91,6.89-11.96,6.1-31.03,4.71-45.15-2.21-.82-8.73-1.78-7.09-5.42,1.96-1.96,5.94-.6,5.99-1.5-1.39-4.39-1.38-13.38-3.48-18.69-3.59-17.14-8.16-40.47-27.02-49.13-29.71-19.73-71.38,3.11-69,39.09-1,12.62-10.26,25.68-2.16,34.26-10.12,5.28-16.32,23.07-23.84,28.89-18.71,21.86,22.89,20.8,25.58,0,5.1-13.65,11.65-1.88,4.36,12.97-1.99,3.9-5.27,10.36-8.28,13.56,4.77,7.04,21.79,12.34,30.52,8.44,7.68-6.91,13.11-18.62,18.08-27.49,9.13-5.41,3.1,14.75.87,17.33ZM187.26,143.19c-1.34-11.58-4.23-22.35-7.09-34.28-15.34,2.95-15.27,10.66-8.39,23.05,6.68,8.75,1.7,17.29,15.49,11.24ZM34.48,226.43c.16-1.55,3.47-5.01.37-5.25,1.12-3.14-1.54.4-2.34.39-.85-.9-6.7-2.92-4.92-4.89-.86-.95-1.33,1.39-1.64,1.78-4.44-4.28-5.74-4.15-10.1-9.18,3.89-2.36,4.71-6.37-.58-2.54-2.02,7.91-2.22,18.31-1.98,26.59.44,4.28,4.91,7.41,3.7,12.2,28.04,17.71,17.89.12,17.5-19.11ZM168.02,294.15c6.34-23.11-24.95-32.13-26.03-53.91-9.91-3.37-21.85-12.54-33.22-12.42-13.83-4.84-29.59-8.47-44.68-10.7-1.76.74-3.02,1.41-4.76.26-1.84,1.93-5.41,1.61-6.96.71-2.41,11.08-.31,22.94,2.19,34.12,9.06,49.55,75.74,36.23,113.45,41.93ZM44.56,373.23c.57-10.8,11.75-73.46,16.31-34.8.13-22.77-1.35-46.48-16.27-63.65-6.91-9.42-1-10.49-13.01-9.28-.85,7.72,1.9,16.14,1.31,24.32-.66,11.34-10.87,147.31,11.66,83.42ZM84.96,361.77c-1.02-16.16-1.59-33.84-5.06-49.7-2.06-15.69-.25-10.75-14.28-17.85-2.17-1.21-2.58-.19-1.82,1.69,3.62,24.13,7.01,56.27,6.84,80.49,11.7-5.74,18.52,4.7,14.32-14.62ZM112.1,368.17c-36.19,9.59,7.21-13.43,20.19-13.16-1.81-15.84-4.09-34.31-5.43-50.22-8.06-1.21-17.46,1.9-24.57-3.29-3.56-1.6-7.07,1.57-12.15-.2-8.57-12.55-.78,18.66-.99,19.98,8.22,46.9-8.94,58.98,45.8,72.82-4.9-22.45,7.74-38.6-22.86-25.92ZM160.42,390.96c.4-28.86-6.04-55.7-9.12-84.05,3.59-3.63-13.43-.52-16.26-1.26,2.08,29.84,10.24,60.21,6.37,90.02,8.71,3.31,22.5,12.51,19.01-4.7ZM150.22,414.37c-15.77-7.58-33.1-13.07-48.3-19.21-5.98-4.6-8.25-.46-10.92-.82-3.74-6.5-12.67-7.07-18.96-11.32-4.86,17.84,3.17,24.52,20.58,26.18,15.6,4.59,31.65,10.02,46.63,15.98,5.8-.38,14.26,2.14,20.03,2.22,4.51-12.54.38-14.42-9.06-13.04ZM178.02,426.15c17.98-6.35,37.37-12.38,55.63-17.83,11.53-3.33,32.61-7.99,20.73-23.3-23.32,12.62-45.81,14.33-71.26,21.17-2.15,3.43-23.31,26.11-5.1,19.95ZM262.79,484.2c-2-24.53-18.05-46.41-13.65-71.06-15.43,3.37-17.45,6.59-8.75,15.52-3.75,4.38.59,12.39,1.58,17.16,4.6,8.38,5.16,52.42,20.82,38.38ZM191.17,477.22c3.19-14.79,1.01-29.62,1.69-44.2-1.37-9.05-12.79,1.69-8.61,8.08,2.87,10.1-6.82,39.04,6.92,36.12ZM160.63,511.8c23.84,8.43,12.75-58.17,15.64-73.16,1.05-9.5-7.19,2.45-11.69,2.36-4.4,1.18-9.43-1.31-13.83-.71,2.69,15.52-6.09,66.34,9.87,71.5Z"/>
      <path d="M591.46,287.66c-98.54-21.5,26.09-70.21,67.7-60.02,48.25,18.82,29.81,45.81-11.12,55.66-17.74,6.96-39.73,5.14-56.59,4.36ZM606.06,276.72c26.72.73,99.29-7.22,46.85-36.52-34.16-6.14-131.86,20.18-46.85,36.52Z"/>
      <path d="M261.78,184.21c-18.24,1.41-50.26,8.95-56.99-13.34-3.94-33.63,87.6-30.28,107.53-25.91,12.18,4.38,38.82,9.07,14.04,18.7-8.87-2.07-17.15-6.09-25.85-8.02-.47-.62-2.86-1.31-2.97-.56.32,20.1-21.05,23.55-35.76,29.14ZM262.36,173.7c54.2-13.81-8.21-26.25-29.79-17.54-42.08,12.17,13.1,24.77,29.79,17.54Z"/>
      <path d="M585.12,178.79c-11.03.03-15.75,1.45-25.21,4.7-9.65-15.78-19.59-39.17-10-56.2,16.2-10,39.87-7.85,54.86-.31,12.92,1.64.49,12.21.15,19.36-3.39,5.97-4.45,25-7.02,28.71-4.1,1.79-8.94,6.46-12.78,3.74ZM584.85,132.6c12.66-1.69-13.57-7.07-17.38-2.56,2.98,2.82,13.72,2.07,17.38,2.56ZM595.94,140.78c-11.25,1.05-23.1,2-34.06-1.57-.12,14.74,9.81,12.92,21.52,13.51,9.28,2.24,10.92-4.08,12.54-11.94ZM586.99,166.57c8.22-11.92-7.88-1.73-19.98-7.15.94,4.1,3.03,8.31,4.81,11.92,4.44-1.9,17.59,3.61,15.16-4.76Z"/>
      <path d="M490.39,295.2c-16.91,8.25-12.57-18.87-18.74-30.92-.92-9.03-3.3-20.14-3.18-29.18,13.22-8.15,29.91-8.46,44.95-6.83,5.87-.71,16.27,7.93,8.11,12.08-1.03,8.67.74,18.06-1.78,26.48,1.82,21.87-6,32.34-29.37,28.37ZM488.19,269.69c.86,11.32,12.42,19.43,18.36,10.59-.63-7.55,3.27-13.77,3.3-21.54,9.34-20.98-9.69-11.67-23.8-13.85-8.74-4.03-.58,12.05-.35,15.14,12.83,1.13,21.77,9.86,2.49,9.66Z"/>
      <path d="M298.76,256.18c-5.45,3.59-14.43-1.06-18.46-4.38-1.59-3.54.47-6.65,3.59-8.66-2.63-2.59-2.15-6.18-1.91-9.61-3.26-19.49-3.28-43.01,22.58-42.13,20.72-1.55,13.61,1.73,19.6,2.9,5.78.76,12.83,1.97,11.04,9.61-9.78,20.99,1.46,64.26-36.45,52.28ZM321.84,212.4c-12.72-1.1-18.35-.28-30.03-3.01,1.12,4.57-.74,11.6,4.74,13.76,13.15,2.77,28.25,8.67,25.29-10.76ZM300.64,244.79c13.83,6.55,15.55-4.31,17.81-14.65-6.21,5.1-22.54-1.48-23.1,7.22-2.92,3.21-3.07,2.91-6.28,4.89,8.79.37,3.42,3.81,11.57,2.55Z"/>
      <path d="M676.84,199.58c-85.89-25.13,1.1-53.09,42.79-35.26,43.07,21.99-21.08,40.69-42.79,35.26ZM689.48,188.92c20.43,6.01,42.89-14.9,17.69-8.95-4.32-.87,2.45-3.96-.26-6.49-7.86-.02-15.16-8.08-21.44-7.83-47.1,1.59-31.82,18.02,4.01,23.26Z"/>
      <path d="M572.7,299.66c-25.8-10.58-32.02,2.25-41.88-8.02,5.28-7.24,8.31-2.97,14.13-4.33-14.88-4.67-5.2-17.66,5.42-9.82,13.91,5.11,23.46,10.56,38.53,14.68,9.33,7.33-11.51,13.35-16.2,7.49Z"/>
      <path d="M210.64,200.71c-5.81,4.42-7.59,1.66-10.88-3.75-7.49-.11-14.11-4.85-18.89-9.9-9.64-3.75-16.3-16.89-1.96-18.63,7.59,6.03,13.65,12.68,22.23,15.84,9.03,4.39,25.69,10.13,9.5,16.45Z"/>
      <path d="M720.43,210.5c2.21-14.95,35.47-17.1,48.02-22.96,26.26-1.47-13.89,12.96-19.97,14.39-7.94,1.72-21.02,13.15-28.05,8.57Z"/>
      <path d="M716.03,250.35c-10.16,8.23-35.72-8.98-37.74-19.14,6.03-3.36,13.68.88,18.2,4.89,5.11,6.76,20.73,5.34,19.55,14.24Z"/>
      <path d="M542.25,23.02c-13.43,19.9-24.26-5.9-6.95-12.59,15.85-15.3,18.11,1.93,6.95,12.59Z"/>
      <path d="M92.29,104.56c-11.61-7.42-4.3-42.69,9.24-36.33-11.02,9.53,5.52,36.67-9.24,36.33Z"/>
      <path d="M393.06,22.87c-10.45.49-19.41-13.67-11.45-22.39,2.79-1.96,6.84,2.58,8.85,4.05,8.97,4.85,11.73,11.94,2.6,18.34Z"/>
      <path d="M543.11,65.24c-11.94.47-15.24-2.45-11.89-12.68-.98-5.28,12.01-10.27,14.45-2.49-.63,4.83-1.29,10.51-2.56,15.17Z"/>
      <path d="M379.13,48.22c-8.62-1.96-9.46-6.71-5.97-14.26,3.84-3.32,26.13,2.26,16.58,9.48-4.62,1.05-4.51,8.07-10.61,4.78Z"/>
      <path d="M630.47,163.92c-19.68,1.99,16.13-14.61,20.82-11.6,2.85,8.74-14.75,10.36-20.82,11.6Z"/>
      <path d="M447.98,83.65c-22.78-.62-.33-42.08,8.62-17.5-.79,6.76.06,16.01-8.62,17.5Z"/>
      <path d="M482.13,83.19c-12.76,3.76-10.31-23.38-1.36-25.02,12.34-2.66,10.44,26.47,1.36,25.02Z"/>
    </g>
  </g>
</svg>