<?xml version="1.0" encoding="UTF-8"?>
<svg id="Layer_2" data-name="Layer 2" xmlns="http://www.w3.org/2000/svg" viewBox="0 0 411.68 360.78">
  <defs>
    <style>
      .cls-1 {
        fill: #f4741b;
      }
    </style>
  </defs>
  <g id="Layer_1-2" data-name="Layer 1">
    <g>
      <path class="cls-1" d="M180.06,271.31c-6.58,12.17-42.87,3.36-37.96,16.36.9,2.39-.38,4.63.16,6.85,2.22,9.09,1.92,19.43-6.11,25.88-7.94,6.38-23.01,3.05-32.05,5.86-1.27,9.7-3.56,24.83-14.04,29.16-11.67,4.81-25.25,5.35-38.19,5.17-7.93-.11-15.16.51-23.11,0-15.28-.98-27.32-12.41-28.63-27.99-1.4-16.72,8.84-28.71,20.23-39.27l12.47-11.56,14.93-14.01,15.61-13.44,13.38-12.63,36.6-32.19,21.41-18.64,39.94-33.95c2.77-2.35,6.3-3.46,8.02-7.19-23.17-58.48,13-121.54,71.21-141.28,3.05-1.03,5.99-.82,8.95-2.05,7.96-3.33,16.09-4.66,24.65-4.62,4.59.02,10.46-2.92,14.75-1.24s6.65.81,11.01,1.42l10.37,1.45,9.05,2.15c29.12,6.91,53.55,27.95,67.17,55.27,20.21,40.54,14.35,92.46-16.95,126.7-10.28,11.25-22.43,20.13-36.53,26.32l-8.95,3.92-13.46,4.01c-2.68.8-6.54.06-9.03,1.42-5.03,2.74-9.83,2.54-15.44,2.76-18.6.75-36.69-1.9-53.84-9.14-2.7-1.14-4.17,1.23-5.42,2.63-3.43,3.83-6.54,7.41-10.21,11.01-6.02,5.89-10.76,13.1-18.07,17.86-3.27.82-8.67,2.2-11.9,1.31l-18.63-5.12c1.24,4.1.22,7.88.61,11.16.66,5.58.81,10.46-2.01,15.67ZM131.6,278.47c1.23-3.61,5.34-6.54,8.54-8.05,6.84-3.24,19.77-.4,28.55-3.76,6.8-4.74-1.68-28.55,4.08-32.36,1.83-1.21,20.26-1.3,26.19,4.66,2.65-1.24,6.16.11,8.3-1.53,5.19-4.52,9.74-9.57,14.32-14.54l9.64-10.48c3.04-3.3,6.37-8.37,11.47-8.38s10.24,2.87,15.02,4.63c5.22,1.93,10.52,2.12,15.63,4.89l24.01.71c21.42.63,50.93-10.99,67.25-25.21,8.59-7.48,15.89-15.42,21.63-25.46,9.7-16.96,14.4-36.53,13.72-56.1-1.77-50.98-39.2-90.6-90.32-94.55-6.41-.5-11.79-1.09-18.09.04.73-.13-17.67,1.37-17.64,1.36-2.73,1.48-5.1,1.74-8.12,2.12-4.24.53-8.11,3.98-12.25,4.23-3.43.21-4.57,1.79-7.39,3.13-34.41,16.22-58.13,50.57-58.99,88.74-.19,8.61,2.39,28.23,7.26,34.72,1.9,2.53,1.53,6.38-.96,8.49l-35.72,30.24-51.08,44.62-25.01,22.11-49.67,45.17-6.95,6.93c-6.04,6.02-10.85,11.65-13.13,19.95-2.7,9.84,4.65,22.68,14.66,23.44,16.06,1.22,32.66.37,49.06.36,18.18-.02,15.62-23.55,18.64-29.29,2.92-5.54,10.41-4.03,15.33-4.74l16.62-2.39c11.65-1.67,1.36-21.89,5.4-33.71Z"/>
      <path class="cls-1" d="M367.35,86.03c-.5,13.53-10.34,28.57-23.25,33.22-4.05,1.46-8.46,2.76-12.82,3.3-14.57,1.8-29.49-5.49-37.29-17.87-6.88-10.91-8.1-23.88-3.06-36.22,4.02-9.85,13.41-20.67,25.71-22.27l9.4-1.22c2.43-.32,6.75,2.38,9.85.58,1.71.87,4.42,1.19,6.45,1.76,15.92,4.48,25.6,23.02,25.02,38.72ZM316.03,108.98c5.58,2.8,9.85,3.62,15.79,2.46,16.23-3.17,27.19-17.65,23.42-34.43-2.57-11.45-12.38-18.79-22.89-20.56-17.46-2.94-33.61,10.34-33.52,27.11.07,12.33,6.93,20.27,17.19,25.43Z"/>
      <path class="cls-1" d="M43.45,323.86c-3.04,2.57-6.77.28-7.91-1.99-1.66-3.27-.35-5.59,2.46-7.98l50.67-43.06,14.78-12.43,70.44-61.16c3.17-2.75,5.37-5.15,8.96-7.37,2.85-1.77,4.52-6.21,9.04-6.04,2.76.1,4.5,3.3,4.71,5.53.28,2.97-1.82,4.69-3.96,6.52l-24.14,20.73-24.58,21.52-73.08,62.59-27.39,23.14Z"/>
      <path class="cls-1" d="M267.5,181.46c3.72,1.69,5.9,4.64,4.72,7.56-1.36,3.36-4.6,5.14-8.31,3.56-13.27-5.65-27.16-15.06-37.12-25.79-5.11-5.5-19.1-19.89-9.9-25.23,6.73-3.9,8.43,9.33,22.64,21.48,8.56,7.32,17.37,13.62,27.97,18.42Z"/>
    </g>
  </g>
</svg>