<?xml version="1.0" encoding="UTF-8"?>
<svg id="Layer_2" data-name="Layer 2" xmlns="http://www.w3.org/2000/svg" viewBox="0 0 590.78 393.24">
  <defs>
    <style>
      .cls-1 {
        fill: #fd8e39;
      }

      .cls-2 {
        fill: #fd8e3a;
      }
    </style>
  </defs>
  <g id="Layer_1-2" data-name="Layer 1">
    <g>
      <path class="cls-1" d="M284.14,204.38c27.52-32.99,28.67-83.92-7.04-112.13-13.24-10.46-28.56-15.98-45.48-18.67.55-3.52.81-6.58,2.03-10.01,43.75,5.38,80.06,36.68,81.16,82.25.69,28.41-9.94,54.38-30.52,73.78-24.55,23.15-58.72,32.99-91.66,25.1-3.02-.72-4.77.69-6.37,2.8l-20.29,26.69c-4.35,5.73-17.14,4.48-19.38,6.99-2.62,2.94,1.95,10.97.39,19.27-4.09,21.75-31.45,11.21-33.9,15.44-1.99,3.43,1.22,11.19.56,19.95-.59,7.83-5.75,13.6-13.42,14.49l-16.35,1.9c-2.14,12.72-.4,27.57-15.27,31.48-16.72,4.39-33.53,7.62-50.85,9.41-8.97.92-16.1-4.28-16.97-13.5-1.04-10.99-1.16-22.37.49-33.57.93-6.34,4.79-11.82,9.18-16.71l112.75-125.58c-3.38-6.91-6.84-13.14-8.77-20.56-15.3-58.7,31.8-113.06,88.78-120.15.23,3.72.14,6.79-.15,10.62-27.65,4.24-51.5,19.35-67.11,42.55-17.34,25.76-18.74,57.5-2.25,84.22,2.46,3.98.18,7.04-2.57,10.09l-113.02,125.64c-4.11,4.57-6.52,9.65-6.94,15.57-.37,5.23-1.47,27,1.59,29.47,5.1,4.11,43.08-4.99,51.69-7.34,8.73-2.38,7.6-10.88,9.14-23.13,1.36-10.83,11.91-8.31,24.01-10.73,10.13-2.02,4.11-11.5,5-25.19.88-13.43,15.13-8.95,28-10.86,16.02-2.38-7.34-31.47,17.71-34.49,2.97-.36,8.01-.32,10.18-2.76,7.68-8.65,13.64-18.26,20.72-27.25,4.08-5.18,9.4-6.25,15.74-4.83,33.33,7.47,67.48-4.23,89.2-30.26Z"/>
      <path class="cls-1" d="M371.82,142.91c-3.17,5.97-17.82,21.46-11.93,27.59l36.36,37.86,88.39,92.31c4.01,4.18,8.67,5.52,13.99,3.11,6.65-3.01,12.74-6.68,18.55-11.47l59.1-48.72c1.79-1.48,3.1-3.67,3.3-5.38.22-1.85-.87-3.98-2.69-5.8l-127.5-127.1c-2.39-2.38-5.35-4.82-8.74-4.59-19.06,1.29-36.85,7.92-51.99,19.37-4.04-.81-7.23-1.81-11-3.13,14.9-16.63,39.86-24.94,60.89-26.95,7.29-.7,12.81,2.15,17.91,7.25l127.33,127.23c4.07,4.07,7.6,8.72,6.92,14.38-.63,5.25-4.34,9.42-8.26,12.91-21.64,19.26-43.74,37.3-66.92,54.67-4.9,3.67-10.33,6.41-15.66,8.08-9.4,2.95-16.76.04-23.31-6.81l-124.99-130.55c-9.94-10.38,2.5-28.1,9.52-36.96l10.76,2.69Z"/>
      <path class="cls-1" d="M334.45,21.44c-26.26-14.99-58.03-14.4-82.54,2.47-17.57,12.1-28.51,31.19-30.32,50.85-2.09,22.61,6.21,42.57,22.32,57.74.62,1.59-.22,5.45-1.43,6.53-5.87-.2-11.27-4.19-15.07-8.98-25.86-32.69-21.38-79.95,9.59-107.95,26.16-23.65,63.31-28.47,95.39-13.79,43.11,19.72,62.11,63.89,38.2,106.41-3.44-1.1-6.11-2.38-9.47-4.09,19.18-34.71,7.5-69.71-26.67-89.21Z"/>
      <path class="cls-1" d="M34.33,358.72c-2.15,2.36-5.06,2.45-6.73,1.56-2.09-1.1-3.03-4.77-1.4-6.98,4.33-5.88,9.04-10.49,14.08-16.09l105.31-116.92c1.95-2.17,6.06-1.66,7.47-.54,2.25,1.77,1.81,5.03-.3,7.43l-43.92,49.94-74.51,81.6Z"/>
      <path class="cls-2" d="M205.58,104.87c5.93,9.72,1.3,10.34-1.64,15.27-4.41,7.4-6.06,15.38-2.38,23.87,2.73,6.29,8.87,12.13,17.22,14.06,13.82,3.2,29.41-5,32.8-19.4,2.43-10.33-3.48-21.04-12.16-26.74-4.74-3.12-8.47-7.54-5.98-13.23,11.37-.86,23.43,13.67,27.21,23.9,4.8,12.98,1.43,25.63-8.11,35.18-16.49,16.51-44.18,15.61-57.74-4.06-10.96-15.9-5.86-37.84,10.79-48.86Z"/>
      <path class="cls-2" d="M345.16,111.5c33.89,21.24,62.79,16.74,70.01,20.08,4.26,1.97-5.95,9.58-22.25,7.55-22.69-2.82-44.28-11.18-62.55-24.94-6.89-5.19-12.57-11.47-15.4-19.3-4.87-13.45,1.17-26.65,13.86-32.78,9.1-4.4,19.2-5.09,29.38-3.79,1.73,3.47,2.47,6.87,2.75,10.55-10.28-1.81-19.93-1.22-28.51,3.56s-11.07,14.83-5.32,22.86c4.8,6.7,10.93,11.75,18.03,16.2Z"/>
      <path class="cls-2" d="M392.07,146.77c9.96-5.46,22.52,7.83,31.8-5.65,2.32-3.36,2.71-8,.74-11.47-4.5-7.93-17.17-3.29-23.94-7.63,5.04-5.54,13.21-8.69,20.89-6.91,12.2,2.83,17.83,15.3,13.86,26.7-3.08,8.85-10.56,14.29-18.82,15.58-9.66,1.5-19.21-1.59-24.54-10.62Z"/>
      <path class="cls-2" d="M417.33,87.06c-4,2.22-6.9,2.2-9.84,4.25-5.81-6.01-11.84-11.36-19.92-14.6.13-3.55.76-6.66,2.34-10.15,11.23,3.22,20.04,10.99,27.42,20.49Z"/>
      <path class="cls-2" d="M324.99,152.18c-2.4-2.92-1.21-6.39-1.5-9.73,7.29-2.47,14.11-4.57,20.42-9.65,3.05.91,5.64,1.74,9.16,3.82-6.49,8.63-16.69,13.22-28.08,15.56Z"/>
    </g>
  </g>
</svg>